<svg width="48" height="48" viewBox="0 0 48 48" fill="none" xmlns="http://www.w3.org/2000/svg">
<rect width="48" height="48" rx="24" fill="white"/>
<path d="M11.4324 45.3656L13.7985 47.7309L13.8015 47.7369C13.8852 47.8206 13.9839 47.8864 14.0886 47.9312C14.1993 47.9761 14.316 48 14.4296 48H33.5734C33.687 48 33.8037 47.9791 33.9144 47.9312C34.0221 47.8864 34.1208 47.8206 34.2015 47.7369H34.2045V47.7309L47.7398 34.1998C47.7398 34.1998 47.7487 34.1819 47.7577 34.1729C47.8295 34.0982 47.8923 34.0115 47.9342 33.9098C47.9342 33.9098 47.9342 33.9038 47.9342 33.9008C47.9761 33.7962 48 33.6855 48 33.5689V14.4251C48 14.3115 47.9761 14.1979 47.9342 14.0932C47.9342 14.0932 47.9342 14.0872 47.9342 14.0842C47.9312 14.0753 47.9222 14.0693 47.9192 14.0633C47.8744 13.9646 47.8175 13.8749 47.7398 13.7972H47.7368C47.7368 13.7972 47.7368 13.7942 47.7368 13.7912L45.3707 11.4259L36.5706 2.62846L34.2045 0.263145H34.2015C34.034 0.0926987 33.8097 0 33.5734 0H14.4236C14.1873 0 13.96 0.0926987 13.7955 0.260154H13.7925V0.266135L0.257249 13.7972C0.179478 13.8749 0.122643 13.9676 0.0777745 14.0663C0.0747833 14.0753 0.0687983 14.0782 0.0658071 14.0872C0.0658071 14.0872 0.0658071 14.0932 0.0658071 14.0962C0.0239301 14.2008 0 14.3145 0 14.4281V33.5719C0 33.6855 0.0239301 33.7992 0.0658071 33.9038C0.0658071 33.9038 0.0658071 33.9098 0.0658071 33.9128C0.107684 34.0145 0.170508 34.1012 0.242297 34.1759C0.248279 34.1849 0.25127 34.1939 0.260243 34.2028L2.62928 36.5711L11.4294 45.3686L11.4324 45.3656ZM46.2322 32.2352L36.9714 28.3987V19.5893L46.2322 15.7528V32.2352ZM33.8934 45.533L30.0557 36.2721L36.2864 30.0434L45.5472 33.8799L33.8905 45.533H33.8934ZM2.46177 33.8799L11.7226 30.0434L17.9533 36.2721L14.1155 45.533L2.45878 33.8799H2.46177ZM1.77978 15.7528L11.0406 19.5893V28.3987L1.77978 32.2352V15.7528ZM14.1185 2.45502L17.9563 11.7159L11.7256 17.9447L2.46477 14.1081L14.1215 2.45502H14.1185ZM28.6379 35.1747H19.3741L12.8233 28.626V19.3621L19.3741 12.8134H28.6379L35.1886 19.3621V28.626L28.6379 35.1747ZM28.4105 11.0341H19.5984L15.7607 1.77324H32.2453L28.4076 11.0341H28.4105ZM19.5984 36.9539H28.4105L32.2483 46.2148H15.7637L19.6014 36.9539H19.5984ZM36.2864 17.9447L30.0557 11.7159L33.8934 2.45502L45.5502 14.1081L36.2894 17.9447H36.2864Z" fill="#2D3A4A"/>
</svg>
