<?xml version="1.0" encoding="UTF-8"?>
<svg id="Layer_2" xmlns="http://www.w3.org/2000/svg" xmlns:xlink="http://www.w3.org/1999/xlink" viewBox="0 0 33.09 33">
  <defs>
    <style>
      .cls-1 {
        fill: url(#linear-gradient);
        fill-rule: evenodd;
      }
    </style>
    <linearGradient id="linear-gradient" x1="0" y1="17.37" x2="33.09" y2="17.37" gradientTransform="translate(0 33.87) scale(1 -1)" gradientUnits="userSpaceOnUse">
      <stop offset=".03" stop-color="#dbba95"/>
      <stop offset="1" stop-color="#b9926d"/>
    </linearGradient>
  </defs>
  <g id="Layer_1-2" data-name="Layer_1">
    <path class="cls-1" d="M.17,23.51s0,0-.02-.02c-.05-.05-.09-.11-.12-.17-.02-.08-.02-.16-.02-.22v-13.18c0-.08,0-.16.02-.22.02-.02.02-.02.02-.02.03-.07.07-.12.12-.17L9.51.17c.1-.12.25-.17.42-.17h13.19c.17,0,.32.05.45.17l7.7,7.68,1.62,1.64h.02c.05.05.08.11.1.17.02,0,.02,0,.02.02.03.07.05.14.05.22v13.18c0,.07-.02.14-.05.22-.03.07-.07.12-.12.17v.02l-9.34,9.32c-.07.05-.13.09-.2.12-.08.03-.17.05-.25.05h-13.19c-.08,0-.16-.02-.22-.05-.08-.03-.15-.07-.2-.12L.17,23.51ZM31.85,10.83l-6.38,2.65v6.04l6.38,2.65v-11.35ZM31.37,23.29l-6.38-2.65-4.27,4.29,2.63,6.37,8.02-8ZM9.71,31.32l2.63-6.37-4.3-4.29-6.38,2.63,8.05,8.03ZM1.22,22.17l6.38-2.63v-6.07l-6.38-2.63v11.32ZM1.69,9.71l6.38,2.63,4.3-4.29-2.66-6.37L1.69,9.71ZM24.27,19.7v-6.37l-4.52-4.51h-6.38l-4.52,4.51v6.37l4.52,4.51h6.38l4.52-4.51ZM22.23,1.24h-11.35l2.63,6.37h6.09l2.63-6.37ZM10.86,31.79h11.38l-2.66-6.37h-6.06l-2.66,6.37ZM31.37,9.71L23.35,1.68l-2.66,6.37,4.3,4.29,6.38-2.63Z"/>
  </g>
</svg>