<svg width="21" height="20" viewBox="0 0 21 20" fill="none" xmlns="http://www.w3.org/2000/svg">
<g id="Group">
<path id="Vector" d="M0.0870261 5.4502C3.14163 6.80127 6.1375 8.13277 9.1921 9.46426C9.1921 12.9105 9.1921 16.435 9.1921 19.9987C8.9963 19.9204 8.82007 19.8617 8.62426 19.7833C6.43121 18.8043 4.23816 17.8448 2.04511 16.8462C0.713612 16.2392 0.00870258 15.1819 0.00870258 13.7133C-0.0108782 11.2657 0.00870258 8.81809 0.00870258 6.37049C0.00870258 6.07678 0.0478645 5.78307 0.0870261 5.4502Z" fill="#919EAB"/>
<path id="Vector_2" d="M10.8762 19.9998C10.8762 16.4361 10.8762 12.9115 10.8762 9.44571C12.0511 8.93661 13.1868 8.44708 14.3616 7.93798C14.3616 8.29044 14.3616 8.62331 14.3616 8.9366C14.3616 9.2499 14.3616 9.56319 14.3616 9.87648C14.3616 10.366 14.7141 10.738 15.184 10.7576C15.6539 10.7772 16.026 10.3856 16.0456 9.89606C16.0456 9.09325 16.0651 8.29044 16.0456 7.48763C16.0456 7.27224 16.1043 7.15475 16.3197 7.05685C17.475 6.56733 18.6106 6.03865 19.7659 5.52954C19.8247 5.50996 19.903 5.4708 20.0009 5.43164C20.04 5.72535 20.0988 5.99948 20.0988 6.27361C20.0988 8.77996 20.1184 11.2863 20.0988 13.7731C20.0792 15.1046 19.4526 16.1619 18.2386 16.7298C15.9281 17.8067 13.5784 18.8249 11.2483 19.8431C11.1308 19.941 11.0133 19.9606 10.8762 19.9998Z" fill="#919EAB"/>
<path id="Vector_3" d="M6.1377 1.43739C6.80344 1.14368 7.44961 0.830384 8.09578 0.575834C8.56572 0.380026 9.03566 0.184222 9.52518 0.0667373C10.1322 -0.0703283 10.7196 0.00799492 11.2874 0.262545C13.598 1.28075 15.9085 2.29895 18.1995 3.33673C18.5324 3.47379 18.8065 3.72835 19.1394 3.94374C19.0023 4.02206 18.9435 4.04164 18.8848 4.0808C17.7295 4.5899 16.5547 5.11859 15.3994 5.62769C15.3015 5.66685 15.1645 5.68643 15.0665 5.64727C12.149 4.27661 9.23146 2.90596 6.3335 1.5353C6.27476 1.51572 6.2356 1.49614 6.1377 1.43739Z" fill="#919EAB"/>
<path id="Vector_4" d="M13.1665 6.62694C12.3832 6.9794 11.6588 7.31226 10.8951 7.62556C10.2685 7.88011 9.62235 7.84095 9.01534 7.56682C6.37193 6.39197 3.72852 5.21712 1.10469 4.04227C1.06553 4.02269 1.02637 4.00311 0.928467 3.92479C1.32008 3.68982 1.63338 3.43527 2.00541 3.25904C2.632 2.94575 3.27817 2.6912 3.90475 2.41707C4.00266 2.3779 4.13972 2.3779 4.23762 2.41707C7.15517 3.78772 10.0727 5.15838 13.0098 6.52904C13.049 6.5682 13.0882 6.58778 13.1665 6.62694Z" fill="#919EAB"/>
</g>
</svg>
