<svg width="16" height="16" viewBox="0 0 16 16" fill="none" xmlns="http://www.w3.org/2000/svg">
<g id="Vector">
<path id="Vector_2" d="M15.6513 8.18343C15.7969 7.98193 15.9002 7.75247 15.9549 7.50913C16.0096 7.2658 16.0146 7.01372 15.9696 6.76836C15.9285 6.5213 15.8384 6.28518 15.7049 6.07418C15.5714 5.86318 15.3971 5.68165 15.1925 5.54047L14.1119 4.79924C14.067 4.76794 14.0297 4.72676 14.0028 4.67878C13.9759 4.6308 13.9601 4.57727 13.9565 4.52222L13.8603 3.21197C13.8429 2.9622 13.7756 2.71861 13.6623 2.49596C13.5491 2.27331 13.3924 2.07624 13.2016 1.9167C13.0124 1.7551 12.7931 1.63344 12.5567 1.55886C12.3203 1.48428 12.0716 1.4583 11.8251 1.48244L10.5373 1.61721C10.4815 1.6246 10.4248 1.61825 10.372 1.5987C10.3191 1.57915 10.2718 1.54697 10.2339 1.5049L9.32356 0.561525C9.15062 0.383693 8.94442 0.242459 8.71697 0.146054C8.48953 0.0496491 8.2454 0 7.9988 0C7.7522 0 7.50807 0.0496491 7.28063 0.146054C7.05319 0.242459 6.84699 0.383693 6.67404 0.561525L5.76373 1.5049C5.72583 1.54697 5.67845 1.57915 5.62562 1.5987C5.57279 1.61825 5.51607 1.6246 5.46029 1.61721L4.17253 1.48244C3.92627 1.45882 3.67783 1.485 3.44167 1.55944C3.2055 1.63389 2.98634 1.75512 2.79693 1.91608C2.60752 2.07703 2.45166 2.2745 2.33841 2.49698C2.22516 2.71946 2.15679 2.9625 2.13728 3.21197L2.04107 4.52222C2.03686 4.57898 2.02003 4.63405 1.99183 4.68332C1.96364 4.73258 1.92482 4.77477 1.87825 4.80673L0.805121 5.54796C0.601848 5.68878 0.428411 5.86925 0.294977 6.07877C0.161543 6.28829 0.0707977 6.52265 0.028061 6.76811C-0.0146758 7.01357 -0.00854412 7.26519 0.0460966 7.50823C0.100737 7.75126 0.202788 7.98081 0.346265 8.18343L1.10856 9.25409C1.14064 9.30032 1.16197 9.3533 1.17094 9.40905C1.17992 9.46481 1.1763 9.52189 1.16036 9.57603L0.805121 10.8414C0.739319 11.0826 0.721791 11.3346 0.753563 11.5827C0.785335 11.8309 0.865768 12.0701 0.990143 12.2864C1.11326 12.503 1.27832 12.6922 1.47543 12.8427C1.67254 12.9932 1.89765 13.1019 2.13728 13.1624L3.39544 13.4843C3.4493 13.498 3.49933 13.524 3.54167 13.5604C3.58401 13.5967 3.61754 13.6424 3.63967 13.694L4.17253 14.8919C4.27353 15.1206 4.41891 15.3265 4.60004 15.4973C4.78117 15.6681 4.99436 15.8004 5.22696 15.8863C5.45957 15.9721 5.70686 16.0099 5.95417 15.9973C6.20147 15.9847 6.44375 15.9219 6.66664 15.8128L7.83598 15.2438C7.88646 15.218 7.94223 15.2045 7.9988 15.2045C8.05537 15.2045 8.11115 15.218 8.16162 15.2438L9.33097 15.8128C9.57967 15.9364 9.85316 16.0005 10.1303 16C10.3472 15.9998 10.5625 15.9618 10.7667 15.8877C10.9996 15.801 11.2131 15.6684 11.3948 15.4974C11.5765 15.3264 11.7228 15.1206 11.8251 14.8919L12.3579 13.694C12.3801 13.6424 12.4136 13.5967 12.4559 13.5604C12.4983 13.524 12.5483 13.498 12.6022 13.4843L13.8603 13.1624C14.0999 13.1013 14.3249 12.9923 14.5221 12.8416C14.7192 12.691 14.8845 12.5018 15.008 12.2854C15.1316 12.0689 15.2109 11.8296 15.2413 11.5815C15.2717 11.3335 15.2526 11.0818 15.1851 10.8414L14.8372 9.57603C14.8213 9.52189 14.8177 9.46481 14.8267 9.40905C14.8356 9.3533 14.857 9.30032 14.889 9.25409L15.6513 8.18343ZM11.381 6.79082L7.947 10.2649C7.63936 10.5719 7.2246 10.744 6.79245 10.744C6.36031 10.744 5.94555 10.5719 5.63791 10.2649L4.61659 9.23163C4.54095 9.15637 4.48088 9.06664 4.43988 8.96766C4.39888 8.86868 4.37776 8.76244 4.37776 8.65512C4.37776 8.5478 4.39888 8.44155 4.43988 8.34257C4.48088 8.24359 4.54095 8.15386 4.61659 8.07861C4.76864 7.92746 4.97328 7.84276 5.18646 7.84276C5.39963 7.84276 5.60428 7.92746 5.75633 8.07861L6.77765 9.11183L10.2487 5.6378C10.3998 5.48589 10.6044 5.40095 10.8175 5.40165C11.0305 5.40235 11.2346 5.48865 11.3847 5.64155C11.5349 5.79445 11.6188 6.00143 11.6181 6.21696C11.6175 6.43249 11.5322 6.63891 11.381 6.79082Z" fill="#5BCE97"/>
</g>
</svg>
