<svg width="24" height="15" viewBox="0 0 24 15" fill="none" xmlns="http://www.w3.org/2000/svg">
<g id="Group">
<path id="Vector" d="M7.49933 10.6992C6.33456 10.6992 5.39062 11.6615 5.39062 12.8494C5.39062 14.0373 6.33456 14.9996 7.49933 14.9996C8.66452 14.9996 9.60822 14.0373 9.60822 12.8494C9.60822 11.6615 8.66452 10.6992 7.49933 10.6992ZM7.49933 13.7842C6.993 13.7842 6.58271 13.3657 6.58271 12.8494C6.58271 12.3328 6.993 11.9146 7.49933 11.9146C8.00573 11.9146 8.41631 12.3328 8.41631 12.8494C8.41631 13.3657 8.00573 13.7842 7.49933 13.7842Z" fill="#919EAB"/>
<path id="Vector_2" d="M18.6204 10.6992C17.4556 10.6992 16.5117 11.6615 16.5117 12.8494C16.5117 14.0373 17.4556 14.9996 18.6204 14.9996C19.7856 14.9996 20.7293 14.0373 20.7293 12.8494C20.7293 11.6615 19.7856 10.6992 18.6204 10.6992ZM18.6204 13.7842C18.114 13.7842 17.7038 13.3657 17.7038 12.8494C17.7038 12.3328 18.114 11.9146 18.6204 11.9146C19.1268 11.9146 19.5374 12.3328 19.5374 12.8494C19.5374 13.3657 19.1268 13.7842 18.6204 13.7842Z" fill="#919EAB"/>
<path id="Vector_3" d="M9.8721 4.09226C9.8721 4.39357 9.63032 4.64007 9.33491 4.64007H1.9219C1.62643 4.64007 1.38477 4.39357 1.38477 4.09226V3.76357C1.38477 3.46232 1.62649 3.21582 1.9219 3.21582H9.33491C9.63038 3.21582 9.8721 3.46232 9.8721 3.76357V4.09226Z" fill="#919EAB"/>
<path id="Vector_4" d="M22.7517 7.29992C21.9785 7.09493 21.5361 6.96606 21.2325 6.36813L20.2173 4.27201C19.9135 3.67409 19.1247 3.18482 18.4646 3.18482H17.076C17.076 3.18482 16.8892 3.18879 16.8892 2.9971C16.8892 2.55759 16.8892 1.23912 16.8892 1.23912C16.8892 0.557617 16.511 0 15.7066 0H4.38995C3.23821 0 2.69141 0.557677 2.69141 1.23912V2.34081C2.69141 2.34081 2.69141 2.66847 3.00239 2.66847C4.58559 2.66847 9.33524 2.66847 9.33524 2.66847C9.92765 2.66847 10.4096 3.15991 10.4096 3.76403V4.09272C10.4096 4.69684 9.92765 5.18828 9.33524 5.18828H3.00239C3.00239 5.18828 2.69141 5.16193 2.69141 5.50427C2.69141 5.6743 2.69141 5.78843 2.69141 5.88313C2.69141 6.18444 3.09638 6.18426 3.09638 6.18426H7.35934C7.95176 6.18426 8.43372 6.67576 8.43372 7.27982V7.60851C8.43372 8.21264 7.95176 8.70407 7.35934 8.70407H3.16364C3.16364 8.70407 2.69141 8.69516 2.69141 9.0786C2.69141 9.74416 2.69141 11.7407 2.69141 11.7407C2.69141 12.4221 3.23821 12.9798 3.9065 12.9798C3.9065 12.9798 4.40989 12.9798 4.57768 12.9798C4.7299 12.9798 4.75232 12.8934 4.75232 12.8499C4.75232 11.3049 5.98506 10.0481 7.50017 10.0481C9.0154 10.0481 10.2481 11.305 10.2481 12.8499C10.2481 12.8935 10.2359 12.9798 10.3523 12.9798C11.6828 12.9798 15.7689 12.9798 15.7689 12.9798C15.8762 12.9798 15.8719 12.8875 15.8719 12.8499C15.8719 11.3049 17.1045 10.0481 18.6197 10.0481C20.1349 10.0481 21.3676 11.305 21.3676 12.8499C21.3676 12.8935 21.3665 12.9798 21.4337 12.9798C22.0438 12.9798 22.7993 12.9798 22.7993 12.9798C23.4598 12.9798 24.0001 12.4289 24.0001 11.7554V9.42913C24.0001 7.47007 23.3936 7.47007 22.7517 7.29992ZM20.4668 7.19096C20.4668 7.19096 17.9169 7.19096 17.0491 7.19096C16.9079 7.19096 16.8891 7.05077 16.8891 7.05077V4.14747C16.8891 4.14747 16.8812 4.03598 17.0625 4.03598C17.3063 4.03598 18.0377 4.03598 18.0377 4.03598C18.6253 4.03598 19.3271 4.47134 19.5973 5.00339L20.5007 6.86853C20.5387 6.94362 20.5794 7.01028 20.6229 7.07002C20.655 7.11383 20.6012 7.19096 20.4668 7.19096Z" fill="#919EAB"/>
<path id="Vector_5" d="M7.8964 7.60886C7.8964 7.91017 7.65467 8.15667 7.35926 8.15667H0.537133C0.241663 8.15667 0 7.91017 0 7.60886V7.28017C0 6.97892 0.241722 6.73242 0.537133 6.73242H7.35926C7.65473 6.73242 7.8964 6.97892 7.8964 7.28017V7.60886Z" fill="#919EAB"/>
</g>
</svg>
