<svg width="16" height="18" viewBox="0 0 16 18" fill="none" xmlns="http://www.w3.org/2000/svg">
<g id="Group">
<g id="Group_2">
<g id="Icons">
<path id="Vector" fill-rule="evenodd" clip-rule="evenodd" d="M11.1485 7.93595L12.9818 7.12876C13.0732 7.08853 13.1805 7.13021 13.2207 7.22155C13.2609 7.31325 13.2193 7.42017 13.1279 7.46041L11.1811 8.31799L8.34416 17.4208L15.796 6.28567C13.8425 7.13425 13.8341 7.20098 13.7097 7.10618C13.4533 6.82885 13.8796 6.74719 14.0719 6.64868C14.615 6.40956 15.6385 5.95897 15.639 5.95873L14.0464 4.66946L10.6157 6.10951L11.1485 7.93595ZM4.79675 8.31799L7.63373 17.4208L0.181903 6.28567L4.79675 8.31799ZM7.98894 17.3425L5.19184 8.36656H10.7861L7.98894 17.3425ZM10.7908 8.0041H5.18712L5.7174 6.18599H10.2605L10.7908 8.0041ZM5.36219 6.10952L4.82937 7.93595L0.338836 5.95874L1.93185 4.66946L5.36219 6.10952ZM2.06959 2.02965C2.07829 2.05105 2.08301 2.07387 2.08301 2.09816V4.33998L5.61773 5.82353H7.98894H10.3602L13.8949 4.33998V2.09816C13.8949 2.07387 13.8996 2.05105 13.9083 2.02965L10.3964 0.599019L7.98894 0.553711L5.58148 0.599019L2.06959 2.02965ZM15.9837 3.6426V5.7717L14.2573 4.37368V2.24495L15.9837 3.6426ZM1.72055 2.24495V4.37368L-0.00585938 5.7717V3.6426L1.72055 2.24495ZM6.67394 3.92315C6.19356 4.41948 5.98468 4.51617 6.14801 4.70535C6.33765 4.84276 6.40251 4.69361 6.53212 4.5775C6.66488 4.44473 6.85955 4.25006 6.91521 4.1944C7.10065 4.02889 6.87102 3.75367 6.67394 3.92315ZM9.57362 2.3642L8.01468 3.92315C7.944 3.99383 7.944 4.10874 8.01468 4.17941C8.08536 4.25009 8.20026 4.25009 8.27094 4.17941L9.82989 2.62047C9.90057 2.54979 9.90057 2.43488 9.82989 2.3642C9.7592 2.29353 9.6443 2.29352 9.57362 2.3642ZM8.90307 1.69365L7.18138 3.4157C7.1107 3.48638 7.1107 3.60129 7.18138 3.67196C7.25206 3.74264 7.36697 3.74264 7.43764 3.67196L9.15933 1.94991C9.23001 1.87923 9.23001 1.76432 9.15933 1.69365C9.08865 1.62297 8.97375 1.62297 8.90307 1.69365Z" fill="#919EAB"/>
</g>
</g>
</g>
</svg>
