<svg width="24" height="24" viewBox="0 0 24 24" fill="none" xmlns="http://www.w3.org/2000/svg">
<g id="Layer 2">
<path id="Vector" d="M21.5096 4.41708L19.5821 2.48958C19.1803 2.09923 18.6422 1.88086 18.0821 1.88086C17.5219 1.88086 16.9838 2.09923 16.5821 2.48958L3.74955 15.3296C3.40511 15.6944 3.14858 16.133 2.99955 16.6121L2.00205 19.6121C1.90957 19.8969 1.88499 20.1995 1.9303 20.4955C1.97561 20.7915 2.08955 21.0729 2.263 21.317C2.43645 21.5612 2.66461 21.7613 2.92924 21.9016C3.19387 22.0418 3.48764 22.1182 3.78705 22.1246C3.99347 22.1248 4.19858 22.0919 4.39455 22.0271L7.39455 21.0296C7.87373 20.8708 8.30997 20.6039 8.66955 20.2496L21.5096 7.39458C21.9039 6.99947 22.1254 6.46405 22.1254 5.90583C22.1254 5.34761 21.9039 4.81219 21.5096 4.41708ZM18.0971 10.0196C17.9916 10.1249 17.8486 10.1841 17.6996 10.1841C17.5505 10.1841 17.4075 10.1249 17.3021 10.0196L13.9796 6.70458C13.8802 6.59795 13.8261 6.45691 13.8287 6.31119C13.8312 6.16546 13.8903 6.02642 13.9933 5.92336C14.0964 5.8203 14.2354 5.76127 14.3812 5.7587C14.5269 5.75613 14.6679 5.81022 14.7746 5.90958L18.0896 9.22458C18.1949 9.33005 18.2541 9.47302 18.2541 9.62208C18.2541 9.77114 18.1949 9.91411 18.0896 10.0196H18.0971Z" fill="#DCBA95"/>
<path id="Vector_2" d="M20.7525 23.0625H12.5625C12.4133 23.0625 12.2702 23.0032 12.1648 22.8977C12.0593 22.7923 12 22.6492 12 22.5C12 22.3508 12.0593 22.2077 12.1648 22.1023C12.2702 21.9968 12.4133 21.9375 12.5625 21.9375H20.7525C21.0668 21.9375 21.3682 21.8127 21.5904 21.5904C21.8127 21.3682 21.9375 21.0668 21.9375 20.7525V12.5625C21.9375 12.4133 21.9968 12.2702 22.1023 12.1648C22.2077 12.0593 22.3508 12 22.5 12C22.6492 12 22.7923 12.0593 22.8977 12.1648C23.0032 12.2702 23.0625 12.4133 23.0625 12.5625V20.7525C23.0625 21.3652 22.8191 21.9527 22.3859 22.3859C21.9527 22.8191 21.3652 23.0625 20.7525 23.0625Z" fill="#DCBA95"/>
<path id="Vector_3" d="M1.5 12C1.35082 12 1.20774 11.9407 1.10225 11.8352C0.996763 11.7298 0.9375 11.5867 0.9375 11.4375V3.2475C0.9375 2.63485 1.18087 2.04729 1.61408 1.61408C2.04729 1.18087 2.63485 0.9375 3.2475 0.9375H11.4375C11.5867 0.9375 11.7298 0.996763 11.8352 1.10225C11.9407 1.20774 12 1.35082 12 1.5C12 1.64918 11.9407 1.79226 11.8352 1.89775C11.7298 2.00324 11.5867 2.0625 11.4375 2.0625H3.2475C2.93322 2.0625 2.63181 2.18735 2.40958 2.40958C2.18735 2.63181 2.0625 2.93322 2.0625 3.2475V11.4375C2.0625 11.5867 2.00324 11.7298 1.89775 11.8352C1.79226 11.9407 1.64918 12 1.5 12Z" fill="#DCBA95"/>
</g>
</svg>
