<svg width="20" height="22" viewBox="0 0 20 22" fill="none" xmlns="http://www.w3.org/2000/svg">
<g id="Layer 2">
<path id="Vector" d="M18 5.25H2C1.0335 5.25 0.25 6.0335 0.25 7V9C0.25 9.9665 1.0335 10.75 2 10.75H18C18.9665 10.75 19.75 9.9665 19.75 9V7C19.75 6.0335 18.9665 5.25 18 5.25Z" fill="#919EAB"/>
<path id="Vector_2" d="M11.4147 6.751C11.0948 6.78869 10.7706 6.73981 10.4759 6.60947C10.1813 6.47913 9.92707 6.27211 9.73974 6.01C9.44974 5.494 9.62274 4.895 10.1397 3.115C10.3557 2.389 11.1507 0.25 13.1817 0.25C13.9954 0.251851 14.7751 0.576092 15.3502 1.1517C15.9252 1.72731 16.2487 2.50736 16.2497 3.321C16.2497 5.235 14.2267 6.035 13.4637 6.335C12.811 6.59471 12.1171 6.73559 11.4147 6.751ZM11.1207 5.231C11.7284 5.27407 12.3377 5.17548 12.9007 4.943C13.7667 4.601 14.7477 4.111 14.7477 3.319C14.7467 2.9032 14.581 2.50473 14.287 2.21072C13.993 1.9167 13.5945 1.75106 13.1787 1.75C12.1857 1.75 11.7147 3.069 11.5947 3.473C11.3807 4.213 11.1877 4.885 11.1227 5.233L11.1207 5.231Z" fill="#919EAB"/>
<path id="Vector_3" d="M8.566 6.74712C7.86939 6.72257 7.18227 6.57777 6.535 6.31912C5.853 6.04911 3.778 5.22811 3.75 3.31911C3.75462 2.91472 3.84017 2.51534 4.00161 2.14453C4.16305 1.77373 4.39712 1.43901 4.69 1.16011C4.9652 0.86948 5.29735 0.638678 5.66572 0.48211C6.03408 0.325542 6.43076 0.246568 6.831 0.250114C8.425 0.292114 9.182 1.77711 9.79 2.97011C10.227 3.82811 10.89 5.12411 10.185 6.07112C9.98853 6.30465 9.73909 6.48784 9.45747 6.60543C9.17585 6.72302 8.8702 6.7716 8.566 6.74712ZM6.766 1.74711C6.37662 1.77106 6.01107 1.94275 5.744 2.22711C5.5937 2.36326 5.47206 2.52802 5.38621 2.71175C5.30036 2.89547 5.25201 3.09448 5.244 3.29711C5.256 4.09711 6.231 4.58511 7.08 4.92111C7.66564 5.22079 8.33678 5.30909 8.98 5.17111C9.064 5.01612 8.888 4.50312 8.453 3.65012L9.12 3.30812L8.452 3.64912C7.89 2.54911 7.441 1.76411 6.79 1.74911L6.766 1.74711Z" fill="#919EAB"/>
<path id="Vector_4" d="M8.75 11.75H11.25V21.75H8.75V11.75Z" fill="#919EAB"/>
<path id="Vector_5" d="M7.25 11.7504V21.7504H4C3.63879 21.7507 3.28107 21.6797 2.94731 21.5416C2.61355 21.4035 2.31028 21.2009 2.05487 20.9455C1.79946 20.6901 1.5969 20.3868 1.4588 20.0531C1.32069 19.7193 1.24974 19.3616 1.25 19.0004V11.6504C1.49495 11.7144 1.74684 11.748 2 11.7504H7.25Z" fill="#919EAB"/>
<path id="Vector_6" d="M18.75 11.6504V19.0004C18.7503 19.3616 18.6793 19.7193 18.5412 20.0531C18.4031 20.3868 18.2005 20.6901 17.9451 20.9455C17.6897 21.2009 17.3865 21.4035 17.0527 21.5416C16.7189 21.6797 16.3612 21.7507 16 21.7504H12.75V11.7504H18C18.2532 11.748 18.5051 11.7144 18.75 11.6504Z" fill="#919EAB"/>
</g>
</svg>
