<svg width="20" height="17" viewBox="0 0 20 17" fill="none" xmlns="http://www.w3.org/2000/svg">
<g id="Group">
<g id="Group_2">
<path id="Vector" d="M19.2232 11.4786C19.1343 11.1577 18.8484 10.9368 18.5217 10.9368L14.0898 10.9383L10.8115 11.2025C9.46838 11.4055 8.31338 10.3278 8.31338 8.986C8.31338 8.46657 8.47088 7.97253 8.76838 7.55455L11.0623 4.32893C11.7011 3.3468 11.5756 2.0273 10.7589 1.19147C9.84162 0.252583 8.24044 0.252583 7.32456 1.19147L3.62769 4.97528C2.7585 5.02454 1.93894 5.29175 1.21269 5.72162L1.57875 6.07538C1.73912 6.23063 1.82375 6.45453 1.80331 6.68136L1.74206 7.39929C1.39644 11.4593 0.237061 15.1923 0.188936 15.3505L0.078125 15.7073L7.38438 16.8536C7.71688 16.9507 8.18794 17 8.78732 17C9.9175 17 12.2363 16.785 13.1317 15.9865L18.9067 12.3176C19.1823 12.1414 19.3121 11.7997 19.2232 11.4786Z" fill="#919EAB"/>
</g>
</g>
</svg>
