<svg width="133" height="36" viewBox="0 0 133 36" fill="none" xmlns="http://www.w3.org/2000/svg">
<path d="M68.2068 23.5406C68.3874 23.5406 68.541 23.4776 68.6674 23.3514C68.7939 23.2253 68.8572 23.0722 68.8572 22.892C68.8572 22.7118 68.7939 22.5496 68.6674 22.4055C68.541 22.2794 68.3874 22.2163 68.2068 22.2163C68.008 22.2163 67.8454 22.2794 67.719 22.4055C67.5925 22.5496 67.5293 22.7118 67.5293 22.892C67.5293 23.0722 67.5925 23.2253 67.719 23.3514C67.8454 23.4776 68.008 23.5406 68.2068 23.5406Z" fill="white" stroke="white" stroke-width="0.2" stroke-miterlimit="10"/>
<path d="M70.1035 22.2163C69.9229 22.2163 69.7693 22.2794 69.6428 22.4055C69.5163 22.5496 69.4531 22.7118 69.4531 22.892C69.4531 23.0722 69.5163 23.2253 69.6428 23.3514C69.7693 23.4776 69.9229 23.5406 70.1035 23.5406C70.2842 23.5406 70.4377 23.4776 70.5642 23.3514C70.6906 23.2253 70.7539 23.0722 70.7539 22.892C70.7539 22.7118 70.6906 22.5496 70.5642 22.4055C70.4377 22.2794 70.2842 22.2163 70.1035 22.2163Z" fill="white" stroke="white" stroke-width="0.2" stroke-miterlimit="10"/>
<path d="M5.36303 24.9731C5.54369 24.9731 5.69724 24.91 5.8237 24.7839C5.95017 24.6578 6.01342 24.5046 6.01342 24.3244C6.01342 24.1442 5.95017 23.9821 5.8237 23.8379C5.69724 23.7118 5.54369 23.6487 5.36303 23.6487C5.1643 23.6487 5.00169 23.7118 4.87523 23.8379C4.74877 23.9821 4.68555 24.1442 4.68555 24.3244C4.68555 24.5046 4.74877 24.6578 4.87523 24.7839C5.00169 24.91 5.1643 24.9731 5.36303 24.9731Z" fill="white" stroke="white" stroke-width="0.2" stroke-miterlimit="10"/>
<path d="M14.332 32.7028C14.1514 32.7028 13.9978 32.7749 13.8714 32.919C13.7449 33.0451 13.6816 33.1983 13.6816 33.3785C13.6816 33.5586 13.7449 33.7118 13.8714 33.8379C13.9978 33.9641 14.1514 34.0271 14.332 34.0271C14.5308 34.0271 14.6934 33.9641 14.8198 33.8379C14.9463 33.7118 15.0095 33.5586 15.0095 33.3785C15.0095 33.1983 14.9463 33.0451 14.8198 32.919C14.6934 32.7749 14.5308 32.7028 14.332 32.7028Z" fill="white" stroke="white" stroke-width="0.2" stroke-miterlimit="10"/>
<path d="M12.4355 32.7028C12.2549 32.7028 12.1013 32.7749 11.9749 32.919C11.8484 33.0451 11.7852 33.1983 11.7852 33.3785C11.7852 33.5586 11.8484 33.7118 11.9749 33.8379C12.1013 33.9641 12.2549 34.0271 12.4355 34.0271C12.6162 34.0271 12.7698 33.9641 12.8963 33.8379C13.0227 33.7118 13.0859 33.5586 13.0859 33.3785C13.0859 33.1983 13.0227 33.0451 12.8963 32.919C12.7698 32.7749 12.6162 32.7028 12.4355 32.7028Z" fill="white" stroke="white" stroke-width="0.2" stroke-miterlimit="10"/>
<path d="M68.6668 29.919H66.6886H66.4989H64.9542H64.7374H63.1928H63.003H61.4313H61.2416H59.697H59.4801H57.9355H57.7458H56.1741H55.9844H54.4397H54.2229H52.6782H52.4886H50.9168H50.7271H49.1824H48.9657H47.421H47.2313H45.6595H45.4699H43.9252H43.7084H42.1638H41.9469H40.4023H40.2126H38.6679H38.4511H36.9065H36.6897H35.145H34.9553H33.3836H33.1939H31.6492H31.4324H29.8878H29.6981H28.1263H27.9367H26.392H26.1752H24.6305H24.4408H22.8691H22.6794H21.1347H20.9179H19.3733H19.1836H17.6118H17.4221H15.8775H15.6607H15.5794C15.2722 29.919 15.0103 29.874 14.7935 29.7839C14.5767 29.6938 14.4051 29.5767 14.2786 29.4325C14.1522 29.2703 14.0618 29.0902 14.0076 28.892C13.9534 28.6938 13.9263 28.4685 13.9263 28.2163V25.6217H12.7882V28.8379C12.7882 29.1622 12.7249 29.4235 12.5985 29.6217C12.472 29.8199 12.2371 29.919 11.8939 29.919H10.8641H10.6744H10.5118C10.2408 29.919 10.015 29.901 9.83435 29.8649C9.65368 29.8289 9.50916 29.7749 9.40077 29.7028C9.2743 29.6307 9.17494 29.5226 9.10268 29.3785C9.03042 29.2343 8.96716 29.0541 8.91297 28.8379C8.8407 28.5857 8.75037 28.3154 8.64197 28.0271C8.53358 27.7388 8.40711 27.4325 8.26258 27.1082C8.06385 27.1983 7.88319 27.2974 7.72059 27.4055C7.57606 27.4956 7.3954 27.5947 7.17861 27.7028C7.43153 28.1352 7.62125 28.6037 7.74772 29.1082C7.89225 29.5947 7.96449 30.0541 7.96449 30.4866C7.96449 30.8289 7.90127 31.1622 7.77481 31.4866C7.66641 31.7929 7.49478 32.0722 7.25992 32.3244C7.00699 32.5586 6.69986 32.7478 6.33854 32.892C5.97721 33.0361 5.5617 33.1082 5.09198 33.1082C4.53193 33.1082 4.06222 33.0361 3.68283 32.892C3.32151 32.7298 3.0234 32.5316 2.78854 32.2974C2.57175 32.0451 2.4182 31.7749 2.32787 31.4866C2.23754 31.1983 2.19237 30.919 2.19237 30.6487C2.19237 30.3244 2.23754 29.9911 2.32787 29.6487C2.40013 29.3064 2.53563 28.9821 2.73436 28.6758L1.78588 28.1352C1.53296 28.4956 1.34324 28.892 1.21677 29.3244C1.07224 29.7749 1 30.2163 1 30.6487C1 31.0631 1.06322 31.4866 1.18968 31.919C1.31614 32.3514 1.53295 32.7388 1.84007 33.0812C2.14719 33.4415 2.56271 33.7298 3.08663 33.946C3.59248 34.1622 4.23382 34.2703 5.01067 34.2703C5.48039 34.2703 5.9411 34.1983 6.39276 34.0541C6.86248 33.928 7.28702 33.7118 7.66641 33.4055C8.0458 33.0992 8.36195 32.7118 8.61488 32.2433C8.88587 31.7568 9.04848 31.1622 9.10268 30.4595C9.24721 30.7118 9.44592 30.874 9.69885 30.946C9.96984 31.0181 10.2408 31.0541 10.5118 31.0541H10.6744H10.8641H12.0023C12.1829 31.0541 12.3636 31.0451 12.5443 31.0271C12.7069 30.9911 12.8695 30.937 13.0321 30.8649C13.1766 30.7929 13.3121 30.6848 13.4386 30.5406C13.565 30.3965 13.6824 30.2073 13.7908 29.9731C13.8992 30.3694 14.107 30.6487 14.4141 30.8109C14.7212 30.9731 15.0916 31.0541 15.5252 31.0541H15.6607H15.8775H17.4221H17.6118H19.1836H19.3733H20.9179H21.1347H22.6794H22.8691H24.4408H24.6305H26.1752H26.392H27.9367H28.1263H29.6981H29.8878H31.4324H31.6492H33.1939H33.3836H34.9553H35.145H36.6897H36.9065H38.4511H38.6679H40.2126H40.4023H41.9469H42.1638H43.7084H43.9252H45.4699H45.6595H47.2313H47.421H48.9657H49.1824H50.7271H50.9168H52.4886H52.6782H54.2229H54.4397H55.9844H56.1741H57.7458H57.9355H59.4801H59.697H61.2416H61.4313H63.003H63.1928H64.7374H64.9542H66.4989H66.6886H69.805V25.6217H68.6668V29.919Z" fill="white" stroke="white" stroke-width="0.2" stroke-miterlimit="10"/>
<path d="M83.2464 25.6217V29.919H81.2953H81.0785H80.9701C80.6449 29.919 80.3829 29.874 80.1842 29.7839C79.9855 29.6938 79.8138 29.5767 79.6693 29.4325C79.5429 29.2704 79.4525 29.0902 79.3983 28.892C79.3441 28.6938 79.317 28.4686 79.317 28.2163V20.7839H78.1789V28.8379C78.1789 29.1623 78.1247 29.4235 78.0163 29.6217C77.9079 29.8199 77.673 29.919 77.3117 29.919H75.6586V23.6487H74.5205V29.919H71.377V31.0541H77.393C77.5737 31.0541 77.7543 31.0451 77.935 31.0271C78.0976 31.0091 78.2602 30.9641 78.4228 30.892C78.5673 30.8019 78.7028 30.6848 78.8292 30.5406C78.9557 30.3965 79.0732 30.2073 79.1815 29.9731C79.2538 30.1893 79.3441 30.3604 79.4525 30.4866C79.579 30.6307 79.7235 30.7478 79.8861 30.8379C80.0307 30.928 80.1933 30.9911 80.3739 31.0271C80.5546 31.0451 80.7352 31.0541 80.9159 31.0541H81.0785H81.2953H84.3846V25.6217H83.2464Z" fill="white" stroke="white" stroke-width="0.2" stroke-miterlimit="10"/>
<path d="M83.707 32.7028C83.5264 32.7028 83.3728 32.7749 83.2464 32.919C83.1199 33.0451 83.0566 33.1983 83.0566 33.3785C83.0566 33.5586 83.1199 33.7118 83.2464 33.8379C83.3728 33.9641 83.5264 34.0271 83.707 34.0271C83.8877 34.0271 84.0413 33.9641 84.1677 33.8379C84.3123 33.7118 84.3845 33.5586 84.3845 33.3785C84.3845 33.1983 84.3123 33.0451 84.1677 32.919C84.0413 32.7749 83.8877 32.7028 83.707 32.7028Z" fill="white" stroke="white" stroke-width="0.2" stroke-miterlimit="10"/>
<path fill-rule="evenodd" clip-rule="evenodd" d="M97.094 25.6486C97.094 25.6486 97.0849 25.6396 97.0669 25.6216C97.0127 25.5676 96.9675 25.5045 96.9314 25.4324C96.9133 25.3423 96.9043 25.2613 96.9043 25.1892V10.8108C96.9043 10.7207 96.9133 10.6396 96.9314 10.5676C96.9494 10.5496 96.9585 10.5405 96.9585 10.5405C96.9946 10.4685 97.0398 10.4054 97.094 10.3514L107.283 0.189188C107.392 0.0540532 107.554 0 107.744 0H122.134C122.323 0 122.486 0.0540532 122.621 0.189188L131.022 8.56757L132.784 10.3514H132.811C132.865 10.4054 132.901 10.4685 132.919 10.5405C132.937 10.5405 132.946 10.5496 132.946 10.5676C132.982 10.6396 133 10.7207 133 10.8108V25.1892C133 25.2613 132.982 25.3423 132.946 25.4324C132.91 25.5045 132.865 25.5676 132.811 25.6216C132.811 25.6396 132.811 25.6486 132.811 25.6486L122.621 35.8108C122.549 35.8649 122.477 35.9099 122.405 35.9459C122.314 35.982 122.224 36 122.134 36H107.744C107.654 36 107.572 35.982 107.5 35.9459C107.41 35.9099 107.338 35.8649 107.283 35.8108L97.094 25.6486ZM131.646 11.8108L124.681 14.7027V21.2973L131.646 24.1892V11.8108ZM131.131 25.4054L124.166 22.5135L119.505 27.1892L122.378 34.1351L131.131 25.4054ZM107.5 34.1622L110.373 27.2162L105.684 22.5405L98.7199 25.4054L107.5 34.1622ZM98.2321 24.1892L105.197 21.3243V14.7027L98.2321 11.8378V24.1892ZM98.7471 10.5946L105.712 13.4595L110.4 8.78378L107.5 1.83784L98.7471 10.5946ZM123.38 21.4865V14.5405L118.448 9.62162H111.484L106.552 14.5405V21.4865L111.484 26.4054H118.448L123.38 21.4865ZM121.158 1.35135H108.774L111.646 8.2973H118.286L121.158 1.35135ZM108.747 34.6757H121.158L118.259 27.7297H111.646L108.747 34.6757ZM131.131 10.5946L122.378 1.83784L119.478 8.78378L124.166 13.4595L131.131 10.5946Z" fill="white"/>
<mask id="path-10-inside-1_36_27891" fill="white">
<path fill-rule="evenodd" clip-rule="evenodd" d="M5.90423 5.02692C7.62051 5.02692 8.94836 5.42331 9.8878 6.2161C10.8272 7.0089 11.297 8.13502 11.297 9.59448C11.297 11.072 10.8272 12.2161 9.8878 13.0269C8.94836 13.8557 7.62051 14.2702 5.90423 14.2702H1.51416V19.081H1.13477V5.02692H5.90423ZM1.51416 14.2702V14.081L1.32445 14.2702H1.51416ZM5.90423 13.8648C7.49405 13.8648 8.72254 13.4864 9.58972 12.7296C10.4569 11.9909 10.8905 10.9458 10.8905 9.59448C10.8905 8.26115 10.4569 7.23412 9.58972 6.5134C8.72254 5.79268 7.49405 5.43232 5.90423 5.43232H1.51416V13.8648H5.90423ZM1.54125 5.43232V5.24313L1.35154 5.43232H1.54125ZM1.54125 13.8648H1.35154L1.54125 14.0269V13.8648Z"/>
</mask>
<path fill-rule="evenodd" clip-rule="evenodd" d="M5.90423 5.02692C7.62051 5.02692 8.94836 5.42331 9.8878 6.2161C10.8272 7.0089 11.297 8.13502 11.297 9.59448C11.297 11.072 10.8272 12.2161 9.8878 13.0269C8.94836 13.8557 7.62051 14.2702 5.90423 14.2702H1.51416V19.081H1.13477V5.02692H5.90423ZM1.51416 14.2702V14.081L1.32445 14.2702H1.51416ZM5.90423 13.8648C7.49405 13.8648 8.72254 13.4864 9.58972 12.7296C10.4569 11.9909 10.8905 10.9458 10.8905 9.59448C10.8905 8.26115 10.4569 7.23412 9.58972 6.5134C8.72254 5.79268 7.49405 5.43232 5.90423 5.43232H1.51416V13.8648H5.90423ZM1.54125 5.43232V5.24313L1.35154 5.43232H1.54125ZM1.54125 13.8648H1.35154L1.54125 14.0269V13.8648Z" fill="white"/>
<path d="M9.8878 13.0269L-48.9162 -55.106L-49.2871 -54.7858L-49.6545 -54.4617L9.8878 13.0269ZM1.51416 19.081V109.081H91.5142V19.081H1.51416ZM1.13477 19.081H-88.8652V109.081H1.13477V19.081ZM1.13477 5.02692V-84.9731H-88.8652V5.02692H1.13477ZM1.51416 14.081H91.5142V-202.772L-62.037 -49.647L1.51416 14.081ZM1.32445 14.2702L-62.2267 -49.4578L-216.382 104.27H1.32445V14.2702ZM9.58972 12.7296L-48.7738 -55.781L-49.182 -55.4332L-49.5861 -55.0806L9.58972 12.7296ZM1.51416 5.43232V-84.5677H-88.4858V5.43232H1.51416ZM1.51416 13.8648H-88.4858V103.865H1.51416V13.8648ZM1.54125 5.43232V95.4323H91.5413V5.43232H1.54125ZM1.54125 5.24313H91.5413V-211.613L-62.0106 -58.4841L1.54125 5.24313ZM1.35154 5.43232L-62.2003 -58.2949L-216.352 95.4323H1.35154V5.43232ZM1.54125 13.8648H91.5413V-76.1352H1.54125V13.8648ZM1.35154 13.8648V-76.1352H-242.458L-57.1255 82.2785L1.35154 13.8648ZM1.54125 14.0269L-56.9358 82.4406L91.5413 209.352V14.0269H1.54125ZM5.90423 95.0269C-5.28041 95.0269 -27.4544 92.4678 -48.1566 74.9973L67.9322 -62.5651C45.3511 -81.6212 20.5214 -84.9731 5.90423 -84.9731V95.0269ZM-48.1566 74.9973C-58.5362 66.238 -66.803 55.0468 -72.1189 42.3028C-77.2673 29.9598 -78.703 18.4738 -78.703 9.59448H101.297C101.297 -12.8967 92.9819 -41.4257 67.9322 -62.5651L-48.1566 74.9973ZM-78.703 9.59448C-78.703 0.842842 -77.3061 -10.4558 -72.3119 -22.6204C-67.1575 -35.1751 -59.1139 -46.3046 -48.9162 -55.106L68.6918 81.1598C93.2433 59.9699 101.297 31.7569 101.297 9.59448H-78.703ZM-49.6545 -54.4617C-28.9258 -72.7498 -6.159 -75.7298 5.90423 -75.7298V104.27C21.4 104.27 46.8225 100.461 69.4301 80.5155L-49.6545 -54.4617ZM5.90423 -75.7298H1.51416V104.27H5.90423V-75.7298ZM-88.4858 14.2702V19.081H91.5142V14.2702H-88.4858ZM1.51416 -70.919H1.13477V109.081H1.51416V-70.919ZM91.1348 19.081V5.02692H-88.8652V19.081H91.1348ZM1.13477 95.0269H5.90423V-84.9731H1.13477V95.0269ZM91.5142 14.2702V14.081H-88.4858V14.2702H91.5142ZM-62.037 -49.647L-62.2267 -49.4578L64.8756 77.9981L65.0653 77.8089L-62.037 -49.647ZM1.32445 104.27H1.51416V-75.7298H1.32445V104.27ZM5.90423 103.865C20.9572 103.865 46.1794 100.25 68.7655 80.5398L-49.5861 -55.0806C-28.7343 -73.2773 -5.96912 -76.1352 5.90423 -76.1352V103.865ZM67.9532 81.2402C92.6793 60.1763 100.89 31.8983 100.89 9.59448H-79.1095C-79.1095 0.68766 -77.6736 -10.7825 -72.5635 -23.0988C-67.2906 -35.8074 -59.0902 -46.9925 -48.7738 -55.781L67.9532 81.2402ZM100.89 9.59448C100.89 -13.0784 92.3845 -41.7007 67.1155 -62.7021L-47.9361 75.7289C-58.4487 66.9917 -66.8957 55.7441 -72.3483 42.829C-77.6303 30.318 -79.1095 18.6417 -79.1095 9.59448H100.89ZM67.1155 -62.7021C44.5796 -81.432 20.0157 -84.5677 5.90423 -84.5677V95.4323C-5.02756 95.4323 -27.1345 93.0173 -47.9361 75.7289L67.1155 -62.7021ZM5.90423 -84.5677H1.51416V95.4323H5.90423V-84.5677ZM-88.4858 5.43232V13.8648H91.5142V5.43232H-88.4858ZM1.51416 103.865H5.90423V-76.1352H1.51416V103.865ZM91.5413 5.43232V5.24313H-88.4587V5.43232H91.5413ZM-62.0106 -58.4841L-62.2003 -58.2949L64.9034 69.1596L65.0931 68.9704L-62.0106 -58.4841ZM1.35154 95.4323H1.54125V-84.5677H1.35154V95.4323ZM1.54125 -76.1352H1.35154V103.865H1.54125V-76.1352ZM-57.1255 82.2785L-56.9358 82.4406L60.0183 -54.3868L59.8286 -54.549L-57.1255 82.2785ZM91.5413 14.0269V13.8648H-88.4587V14.0269H91.5413Z" fill="white" mask="url(#path-10-inside-1_36_27891)"/>
<mask id="path-12-inside-2_36_27891" fill="white">
<path d="M18.5332 5.02692H18.9397V18.6756H25.2538V19.081H18.5332V5.02692Z"/>
</mask>
<path d="M18.5332 5.02692H18.9397V18.6756H25.2538V19.081H18.5332V5.02692Z" fill="white"/>
<path d="M18.5332 5.02692V-84.9731H-71.4668V5.02692H18.5332ZM18.9397 5.02692H108.94V-84.9731H18.9397V5.02692ZM18.9397 18.6756H-71.0603V108.676H18.9397V18.6756ZM25.2538 18.6756H115.254V-71.3244H25.2538V18.6756ZM25.2538 19.081V109.081H115.254V19.081H25.2538ZM18.5332 19.081H-71.4668V109.081H18.5332V19.081ZM18.5332 95.0269H18.9397V-84.9731H18.5332V95.0269ZM-71.0603 5.02692V18.6756H108.94V5.02692H-71.0603ZM18.9397 108.676H25.2538V-71.3244H18.9397V108.676ZM-64.7462 18.6756V19.081H115.254V18.6756H-64.7462ZM25.2538 -70.919H18.5332V109.081H25.2538V-70.919ZM108.533 19.081V5.02692H-71.4668V19.081H108.533Z" fill="white" mask="url(#path-12-inside-2_36_27891)"/>
<mask id="path-14-inside-3_36_27891" fill="white">
<path fill-rule="evenodd" clip-rule="evenodd" d="M36.7426 5.02692H37.2033L43.7342 19.081H43.2735L41.2953 14.8107H41.3766V14.4053H41.1056L36.9594 5.48638L32.9216 14.4053H32.6235V14.8107H32.7319L30.7808 19.081H30.293L36.7426 5.02692ZM41.2682 14.8107L41.0785 14.4053H32.8945L32.7048 14.8107H41.2682Z"/>
</mask>
<path fill-rule="evenodd" clip-rule="evenodd" d="M36.7426 5.02692H37.2033L43.7342 19.081H43.2735L41.2953 14.8107H41.3766V14.4053H41.1056L36.9594 5.48638L32.9216 14.4053H32.6235V14.8107H32.7319L30.7808 19.081H30.293L36.7426 5.02692ZM41.2682 14.8107L41.0785 14.4053H32.8945L32.7048 14.8107H41.2682Z" fill="white"/>
<path d="M36.7426 5.02692V-84.9731H-20.9796L-45.0552 -32.5114L36.7426 5.02692ZM37.2033 5.02692L118.821 -32.9009L94.6233 -84.9731H37.2033V5.02692ZM43.7342 19.081V109.081H184.8L125.352 -18.8468L43.7342 19.081ZM43.2735 19.081L-38.3892 56.9123L-14.2213 109.081H43.2735V19.081ZM41.2953 14.8107V-75.1893H-99.5869L-40.3674 52.642L41.2953 14.8107ZM41.3766 14.8107V104.811H131.377V14.8107H41.3766ZM41.3766 14.4053H131.377V-75.5947H41.3766V14.4053ZM41.1056 14.4053L-40.5068 52.345L-16.3052 104.405H41.1056V14.4053ZM36.9594 5.48638L118.572 -32.4533L35.8758 -210.341L-45.0298 -31.632L36.9594 5.48638ZM32.9216 14.4053V104.405H90.9701L114.911 51.5236L32.9216 14.4053ZM32.6235 14.4053V-75.5947H-57.3765V14.4053H32.6235ZM32.6235 14.8107H-57.3765V104.811H32.6235V14.8107ZM32.7319 14.8107L114.592 52.2134L172.803 -75.1893H32.7319V14.8107ZM30.7808 19.081V109.081H88.6084L112.641 56.4836L30.7808 19.081ZM30.293 19.081L-51.5048 -18.4574L-110.034 109.081L30.293 109.081V19.081ZM41.2682 14.8107V104.811H182.741L122.787 -23.3303L41.2682 14.8107ZM41.0785 14.4053L122.597 -23.7357L98.3331 -75.5947H41.0785V14.4053ZM32.8945 14.4053V-75.5947H-24.3602L-48.624 -23.7357L32.8945 14.4053ZM32.7048 14.8107L-48.8137 -23.3303L-108.768 104.811L32.7048 104.811V14.8107ZM36.7426 95.0269H37.2033V-84.9731H36.7426V95.0269ZM-44.4146 42.9547L-37.8837 57.0088L125.352 -18.8468L118.821 -32.9009L-44.4146 42.9547ZM43.7342 -70.919H43.2735V109.081H43.7342V-70.919ZM124.936 -18.7503L122.958 -23.0206L-40.3674 52.642L-38.3892 56.9123L124.936 -18.7503ZM41.2953 104.811H41.3766V-75.1893H41.2953V104.811ZM131.377 14.8107V14.4053H-48.6234V14.8107H131.377ZM41.3766 -75.5947H41.1056V104.405H41.3766V-75.5947ZM122.718 -23.5344L118.572 -32.4533L-44.653 43.4261L-40.5068 52.345L122.718 -23.5344ZM-45.0298 -31.632L-49.0676 -22.7131L114.911 51.5236L118.949 42.6047L-45.0298 -31.632ZM32.9216 -75.5947H32.6235V104.405H32.9216V-75.5947ZM-57.3765 14.4053V14.8107H122.623V14.4053H-57.3765ZM32.6235 104.811H32.7319V-75.1893H32.6235V104.811ZM-49.128 -22.592L-51.0791 -18.3217L112.641 56.4836L114.592 52.2134L-49.128 -22.592ZM30.7808 -70.919H30.293V109.081H30.7808V-70.919ZM112.091 56.6193L118.54 42.5652L-45.0552 -32.5114L-51.5048 -18.4574L112.091 56.6193ZM122.787 -23.3303L122.597 -23.7357L-40.44 52.5463L-40.2503 52.9517L122.787 -23.3303ZM41.0785 -75.5947H32.8945V104.405H41.0785V-75.5947ZM-48.624 -23.7357L-48.8137 -23.3303L114.223 52.9517L114.413 52.5463L-48.624 -23.7357ZM32.7048 104.811H41.2682V-75.1893H32.7048V104.811Z" fill="white" mask="url(#path-14-inside-3_36_27891)"/>
<mask id="path-16-inside-4_36_27891" fill="white">
<path d="M47.0137 5.02692H57.1217V5.43232H52.2709V19.081H51.8644V5.43232H47.0137V5.02692Z"/>
</mask>
<path d="M47.0137 5.02692H57.1217V5.43232H52.2709V19.081H51.8644V5.43232H47.0137V5.02692Z" fill="white"/>
<path d="M47.0137 5.02692V-84.9731H-42.9863V5.02692H47.0137ZM57.1217 5.02692H147.122V-84.9731H57.1217V5.02692ZM57.1217 5.43232V95.4323H147.122V5.43232H57.1217ZM52.2709 5.43232V-84.5677H-37.7291V5.43232H52.2709ZM52.2709 19.081V109.081H142.271V19.081H52.2709ZM51.8644 19.081H-38.1356V109.081H51.8644V19.081ZM51.8644 5.43232H141.864V-84.5677H51.8644V5.43232ZM47.0137 5.43232H-42.9863V95.4323H47.0137V5.43232ZM47.0137 95.0269H57.1217V-84.9731H47.0137V95.0269ZM-32.8783 5.02692V5.43232H147.122V5.02692H-32.8783ZM57.1217 -84.5677H52.2709V95.4323H57.1217V-84.5677ZM-37.7291 5.43232V19.081H142.271V5.43232H-37.7291ZM52.2709 -70.919H51.8644V109.081H52.2709V-70.919ZM141.864 19.081V5.43232H-38.1356V19.081H141.864ZM51.8644 -84.5677H47.0137V95.4323H51.8644V-84.5677ZM137.014 5.43232V5.02692H-42.9863V5.43232H137.014Z" fill="white" mask="url(#path-16-inside-4_36_27891)"/>
<mask id="path-18-inside-5_36_27891" fill="white">
<path d="M64.0059 5.02692H64.4123V19.081H64.0059V5.02692Z"/>
</mask>
<path d="M64.0059 5.02692H64.4123V19.081H64.0059V5.02692Z" fill="white"/>
<path d="M64.0059 5.02692V-84.9731H-25.9941V5.02692H64.0059ZM64.4123 5.02692H154.412V-84.9731H64.4123V5.02692ZM64.4123 19.081V109.081H154.412V19.081H64.4123ZM64.0059 19.081H-25.9941V109.081H64.0059V19.081ZM64.0059 95.0269H64.4123V-84.9731H64.0059V95.0269ZM-25.5877 5.02692V19.081H154.412V5.02692H-25.5877ZM64.4123 -70.919H64.0059V109.081H64.4123V-70.919ZM154.006 19.081V5.02692H-25.9941V19.081H154.006Z" fill="white" mask="url(#path-18-inside-5_36_27891)"/>
<mask id="path-20-inside-6_36_27891" fill="white">
<path d="M73.5977 5.02692H74.2209L84.2747 18.8377L84.1664 18.8648V5.02692H84.5729V19.081H83.9496L73.9228 5.27016L74.0041 5.24313V19.081H73.5977V5.02692Z"/>
</mask>
<path d="M73.5977 5.02692H74.2209L84.2747 18.8377L84.1664 18.8648V5.02692H84.5729V19.081H83.9496L73.9228 5.27016L74.0041 5.24313V19.081H73.5977V5.02692Z" fill="white"/>
<path d="M73.5977 5.02692V-84.9731H-16.4023V5.02692H73.5977ZM74.2209 5.02692L146.983 -47.9416L120.025 -84.9731H74.2209V5.02692ZM84.2747 18.8377L106.054 106.163L235.638 73.8431L157.037 -34.1308L84.2747 18.8377ZM84.1664 18.8648H-5.83364V134.069L105.946 106.19L84.1664 18.8648ZM84.1664 5.02692V-84.9731H-5.83364V5.02692H84.1664ZM84.5729 5.02692H174.573V-84.9731H84.5729V5.02692ZM84.5729 19.081V109.081H174.573V19.081H84.5729ZM83.9496 19.081L11.1194 71.956L38.0723 109.081H83.9496V19.081ZM73.9228 5.27016L45.5332 -80.1349L-71.1419 -41.3508L1.0927 58.1452L73.9228 5.27016ZM74.0041 5.24313H164.004V-119.516L45.6145 -80.162L74.0041 5.24313ZM74.0041 19.081V109.081H164.004V19.081H74.0041ZM73.5977 19.081H-16.4023V109.081H73.5977V19.081ZM73.5977 95.0269H74.2209V-84.9731H73.5977V95.0269ZM1.45871 57.9954L11.5125 71.8062L157.037 -34.1308L146.983 -47.9416L1.45871 57.9954ZM62.495 -68.4872L62.3867 -68.4602L105.946 106.19L106.054 106.163L62.495 -68.4872ZM174.166 18.8648V5.02692H-5.83364V18.8648H174.166ZM84.1664 95.0269H84.5729V-84.9731H84.1664V95.0269ZM-5.42715 5.02692V19.081H174.573V5.02692H-5.42715ZM84.5729 -70.919H83.9496V109.081H84.5729V-70.919ZM156.78 -33.7941L146.753 -47.6049L1.0927 58.1452L11.1194 71.956L156.78 -33.7941ZM102.312 90.6753L102.394 90.6482L45.6145 -80.162L45.5332 -80.1349L102.312 90.6753ZM-15.9959 5.24313V19.081H164.004V5.24313H-15.9959ZM74.0041 -70.919H73.5977V109.081H74.0041V-70.919ZM163.598 19.081V5.02692H-16.4023V19.081H163.598Z" fill="white" mask="url(#path-20-inside-6_36_27891)"/>
</svg>
