<svg width="32" height="32" viewBox="0 0 32 32" fill="none" xmlns="http://www.w3.org/2000/svg">
<g id="vuesax/bold/medal">
<g id="medal">
<path id="Vector" d="M16 20.0003C20.9706 20.0003 25 16.1201 25 11.3337C25 6.54719 20.9706 2.66699 16 2.66699C11.0294 2.66699 7 6.54719 7 11.3337C7 16.1201 11.0294 20.0003 16 20.0003Z" fill="#DCBA95"/>
<path id="Vector_2" d="M21.0533 20.8138C21.4933 20.5871 22 20.9204 22 21.4138V27.8804C22 29.0804 21.16 29.6671 20.12 29.1738L16.5467 27.4804C16.24 27.3471 15.76 27.3471 15.4533 27.4804L11.88 29.1738C10.84 29.6538 10 29.0671 10 27.8671L10.0267 21.4138C10.0267 20.9204 10.5467 20.6004 10.9733 20.8138C12.48 21.5738 14.1867 22.0004 16 22.0004C17.8133 22.0004 19.5333 21.5738 21.0533 20.8138Z" fill="#DCBA95"/>
</g>
</g>
</svg>
