<svg width="24" height="24" viewBox="0 0 24 24" fill="none" xmlns="http://www.w3.org/2000/svg">
<g id="package-delivery_6839906 1" clip-path="url(#clip0_481_7189)">
<path id="Vector" d="M2.09266 8.64355H2.08187C1.4779 8.64355 0.988281 9.13317 0.988281 9.73715V9.74793C0.988281 10.3519 1.4779 10.8415 2.08187 10.8415H2.09266C2.69663 10.8415 3.18625 10.3519 3.18625 9.74793V9.73715C3.18625 9.13317 2.69663 8.64355 2.09266 8.64355Z" fill="#919EAB"/>
<path id="Vector_2" d="M23.9416 8.26265C23.9116 7.01624 23.2076 5.76468 22.0287 5.1464C20.0885 4.1189 17.9585 3.24046 16.0085 2.56827C15.2203 2.29756 14.3644 2.29756 13.5762 2.56827C12.9916 2.77124 12.3945 2.99015 11.7907 3.22452C14.3782 4.07343 17.4105 5.21999 20.2526 6.6239C20.5235 6.75735 20.7546 6.95952 20.923 7.21022C21.0914 7.46092 21.1911 7.75139 21.2121 8.05265C21.2899 9.46499 21.3274 10.9219 21.3185 12.375C21.3185 12.5301 21.1634 12.63 21.0373 12.555L20.3515 12.1453C20.319 12.1261 20.2806 12.1196 20.2437 12.1273C20.2067 12.1349 20.174 12.156 20.1518 12.1866C19.853 12.5784 19.5468 12.9753 19.233 13.3772C19.2078 13.4119 19.172 13.4376 19.1311 13.4504C19.0901 13.4633 19.0461 13.4626 19.0055 13.4485C18.965 13.4345 18.93 13.4077 18.9058 13.3722C18.8816 13.3368 18.8695 13.2945 18.8712 13.2516C18.8899 11.7937 18.8754 10.3158 18.8295 8.88702C18.8156 8.57586 18.7152 8.27474 18.5394 8.01759C18.3637 7.76044 18.1196 7.55747 17.8348 7.43155C14.8755 6.1064 11.9412 5.04093 9.43523 4.22811H9.42773H9.42398H2.6468C2.35684 4.22824 2.0788 4.34351 1.87381 4.54859C1.66883 4.75366 1.55367 5.03175 1.55367 5.32171V5.33296C1.55367 5.62287 1.66884 5.90091 1.87384 6.10591C2.07884 6.31092 2.35688 6.42608 2.6468 6.42608H6.1957V6.42936C6.47115 6.44949 6.72878 6.57309 6.91685 6.77533C7.10493 6.97758 7.20952 7.2435 7.20961 7.51968V7.53093C7.20967 7.6747 7.18138 7.81707 7.12636 7.9499C7.07135 8.08272 6.99068 8.2034 6.88897 8.30502C6.78727 8.40663 6.66652 8.4872 6.53365 8.5421C6.40078 8.59701 6.25838 8.62517 6.11461 8.62499H4.93195C4.64224 8.62499 4.36436 8.73995 4.15933 8.94463C3.95429 9.14932 3.83886 9.42699 3.83836 9.71671V9.72796C3.83848 10.018 3.95374 10.296 4.1588 10.5011C4.36386 10.7062 4.64195 10.8214 4.93195 10.8216H6.11461C6.2582 10.8216 6.40038 10.8498 6.53304 10.9048C6.66569 10.9598 6.78622 11.0403 6.88773 11.1419C6.98924 11.2434 7.06975 11.364 7.12466 11.4967C7.17957 11.6294 7.2078 11.7716 7.20773 11.9151V11.9259C7.2078 12.0695 7.17957 12.2117 7.12466 12.3444C7.06975 12.4771 6.98924 12.5976 6.88773 12.6992C6.78622 12.8007 6.66569 12.8813 6.53304 12.9363C6.40038 12.9912 6.2582 13.0195 6.11461 13.0195H1.08773C0.797695 13.0195 0.519535 13.1347 0.314447 13.3398C0.109358 13.5449 -0.00585937 13.8231 -0.00585938 14.1131V14.1239C-0.00585937 14.4139 0.109358 14.6921 0.314447 14.8972C0.519535 15.1023 0.797695 15.2175 1.08773 15.2175H6.11461C6.2583 15.2176 6.40057 15.2459 6.53329 15.301C6.66601 15.3561 6.78657 15.4368 6.88809 15.5385C6.98961 15.6402 7.07009 15.7609 7.12494 15.8937C7.17978 16.0265 7.20792 16.1688 7.20773 16.3125V16.3237C7.20773 16.6137 7.09257 16.8917 6.88757 17.0967C6.68257 17.3017 6.40452 17.4169 6.11461 17.4169H4.11773C3.82778 17.417 3.54974 17.5323 3.34475 17.7373C3.13976 17.9424 3.02461 18.2205 3.02461 18.5105V18.5217C3.02461 18.8117 3.13976 19.0898 3.34475 19.2948C3.54974 19.4999 3.82778 19.6152 4.11773 19.6153H9.08039C10.5457 20.3005 12.0464 20.9073 13.5762 21.4331C14.3644 21.7038 15.2203 21.7038 16.0085 21.4331C17.9585 20.7609 20.0866 19.8825 22.0287 18.855C23.2076 18.2367 23.9116 16.9851 23.9416 15.7387C24.0185 13.2462 24.0185 10.7542 23.9416 8.26265Z" fill="#919EAB"/>
</g>
<defs>
<clipPath id="clip0_481_7189">
<rect width="24" height="24" fill="white"/>
</clipPath>
</defs>
</svg>
