<svg width="122" height="33" viewBox="0 0 122 33" fill="none" xmlns="http://www.w3.org/2000/svg">
<path d="M62.6054 21.5792C62.771 21.5792 62.9118 21.5214 63.0277 21.4058C63.1436 21.2902 63.2016 21.1498 63.2016 20.9846C63.2016 20.8194 63.1436 20.6708 63.0277 20.5387C62.9118 20.423 62.771 20.3652 62.6054 20.3652C62.4232 20.3652 62.2742 20.423 62.1582 20.5387C62.0423 20.6708 61.9844 20.8194 61.9844 20.9846C61.9844 21.1498 62.0423 21.2902 62.1582 21.4058C62.2742 21.5214 62.4232 21.5792 62.6054 21.5792Z" fill="#2D3A4A" stroke="#2D3A4A" stroke-width="0.2" stroke-miterlimit="10"/>
<path d="M64.3462 20.3652C64.1806 20.3652 64.0398 20.423 63.9239 20.5387C63.808 20.6708 63.75 20.8194 63.75 20.9846C63.75 21.1498 63.808 21.2902 63.9239 21.4058C64.0398 21.5214 64.1806 21.5792 64.3462 21.5792C64.5118 21.5792 64.6525 21.5214 64.7685 21.4058C64.8844 21.2902 64.9424 21.1498 64.9424 20.9846C64.9424 20.8194 64.8844 20.6708 64.7685 20.5387C64.6525 20.423 64.5118 20.3652 64.3462 20.3652Z" fill="#2D3A4A" stroke="#2D3A4A" stroke-width="0.2" stroke-miterlimit="10"/>
<path d="M4.99993 22.8917C5.16554 22.8917 5.30629 22.8339 5.42222 22.7183C5.53814 22.6027 5.59612 22.4623 5.59612 22.2971C5.59612 22.1319 5.53814 21.9833 5.42222 21.8512C5.30629 21.7355 5.16554 21.6777 4.99993 21.6777C4.81776 21.6777 4.66871 21.7355 4.55278 21.8512C4.43686 21.9833 4.37891 22.1319 4.37891 22.2971C4.37891 22.4623 4.43686 22.6027 4.55278 22.7183C4.66871 22.8339 4.81776 22.8917 4.99993 22.8917Z" fill="#2D3A4A" stroke="#2D3A4A" stroke-width="0.2" stroke-miterlimit="10"/>
<path d="M13.2212 29.9775C13.0556 29.9775 12.9148 30.0436 12.7989 30.1757C12.683 30.2913 12.625 30.4317 12.625 30.5969C12.625 30.7621 12.683 30.9025 12.7989 31.0181C12.9148 31.1337 13.0556 31.1915 13.2212 31.1915C13.4034 31.1915 13.5524 31.1337 13.6683 31.0181C13.7843 30.9025 13.8422 30.7621 13.8422 30.5969C13.8422 30.4317 13.7843 30.2913 13.6683 30.1757C13.5524 30.0436 13.4034 29.9775 13.2212 29.9775Z" fill="#2D3A4A" stroke="#2D3A4A" stroke-width="0.2" stroke-miterlimit="10"/>
<path d="M11.4829 29.9775C11.3173 29.9775 11.1765 30.0436 11.0606 30.1757C10.9447 30.2913 10.8867 30.4317 10.8867 30.5969C10.8867 30.7621 10.9447 30.9025 11.0606 31.0181C11.1765 31.1337 11.3173 31.1915 11.4829 31.1915C11.6485 31.1915 11.7893 31.1337 11.9052 31.0181C12.0211 30.9025 12.0791 30.7621 12.0791 30.5969C12.0791 30.4317 12.0211 30.2913 11.9052 30.1757C11.7893 30.0436 11.6485 29.9775 11.4829 29.9775Z" fill="#2D3A4A" stroke="#2D3A4A" stroke-width="0.2" stroke-miterlimit="10"/>
<path d="M63.0279 27.4255H61.2145H61.0406H59.6247H59.426H58.01H57.8361H56.3954H56.2215H54.8055H54.6068H53.1909H53.017H51.5762H51.4023H49.9864H49.7877H48.3717H48.1979H46.7571H46.5832H45.1672H44.9685H43.5526H43.3787H41.9379H41.764H40.3481H40.1494H38.7334H38.5347H37.1188H36.9449H35.529H35.3302H33.9143H33.7156H32.2996H32.1257H30.685H30.5111H29.0951H28.8964H27.4805H27.3066H25.8658H25.6919H24.276H24.0773H22.6613H22.4874H21.0467H20.8728H19.4568H19.2581H17.8422H17.6683H16.2275H16.0536H14.6377H14.439H14.3644C14.0829 27.4255 13.8428 27.3842 13.6441 27.3016C13.4453 27.2191 13.288 27.1117 13.1721 26.9796C13.0562 26.8309 12.9733 26.6658 12.9237 26.4841C12.874 26.3024 12.8491 26.0959 12.8491 25.8647V23.4863H11.8058V26.4345C11.8058 26.7318 11.7478 26.9713 11.6319 27.153C11.516 27.3347 11.3007 27.4255 10.9861 27.4255H10.0421H9.86822H9.71918C9.47077 27.4255 9.26376 27.409 9.09815 27.376C8.93255 27.3429 8.80007 27.2934 8.7007 27.2273C8.58478 27.1613 8.4937 27.0622 8.42746 26.93C8.36121 26.7979 8.30323 26.6327 8.25355 26.4345C8.18731 26.2033 8.10451 25.9555 8.00514 25.6913C7.90578 25.427 7.78985 25.1462 7.65736 24.8489C7.4752 24.9315 7.30959 25.0224 7.16054 25.1215C7.02806 25.204 6.86245 25.2949 6.66372 25.394C6.89557 25.7904 7.06948 26.2198 7.18541 26.6823C7.31789 27.1282 7.38412 27.5494 7.38412 27.9458C7.38412 28.2596 7.32617 28.5652 7.21024 28.8625C7.11088 29.1432 6.95355 29.3992 6.73826 29.6305C6.50641 29.8452 6.22487 30.0186 5.89366 30.1507C5.56245 30.2829 5.18156 30.3489 4.75098 30.3489C4.2376 30.3489 3.80704 30.2829 3.45926 30.1507C3.12805 30.0021 2.85479 29.8204 2.6395 29.6057C2.44077 29.3745 2.30002 29.1267 2.21721 28.8625C2.13441 28.5982 2.09301 28.3422 2.09301 28.0944C2.09301 27.7971 2.13441 27.4916 2.21721 27.1778C2.28346 26.864 2.40766 26.5667 2.58983 26.2859L1.72039 25.7904C1.48855 26.1207 1.31463 26.4841 1.19871 26.8805C1.06622 27.2934 1 27.698 1 28.0944C1 28.4743 1.05795 28.8625 1.17387 29.2589C1.2898 29.6552 1.48853 30.0103 1.77006 30.3242C2.0516 30.6545 2.43248 30.9188 2.91274 31.117C3.37644 31.3152 3.96434 31.4143 4.67645 31.4143C5.10702 31.4143 5.52934 31.3482 5.94336 31.2161C6.37394 31.1004 6.7631 30.9022 7.11087 30.6215C7.45865 30.3407 7.74846 29.9856 7.98031 29.5561C8.22872 29.1102 8.37778 28.5652 8.42746 27.921C8.55994 28.1522 8.7421 28.3009 8.97395 28.367C9.22236 28.433 9.47077 28.4661 9.71918 28.4661H9.86822H10.0421H11.0854C11.251 28.4661 11.4166 28.4578 11.5822 28.4413C11.7313 28.4082 11.8804 28.3587 12.0294 28.2926C12.1619 28.2266 12.2861 28.1275 12.402 27.9953C12.5179 27.8632 12.6256 27.6898 12.7249 27.4751C12.8243 27.8384 13.0148 28.0944 13.2963 28.2431C13.5778 28.3917 13.9173 28.4661 14.3148 28.4661H14.439H14.6377H16.0536H16.2275H17.6683H17.8422H19.2581H19.4568H20.8728H21.0467H22.4874H22.6613H24.0773H24.276H25.6919H25.8658H27.3066H27.4805H28.8964H29.0951H30.5111H30.685H32.1257H32.2996H33.7156H33.9143H35.3302H35.529H36.9449H37.1188H38.5347H38.7334H40.1494H40.3481H41.764H41.9379H43.3787H43.5526H44.9685H45.1672H46.5832H46.7571H48.1979H48.3717H49.7877H49.9864H51.4023H51.5762H53.017H53.1909H54.6068H54.8055H56.2215H56.3954H57.8361H58.01H59.426H59.6247H61.0406H61.2145H64.0712V23.4863H63.0279V27.4255Z" fill="#2D3A4A" stroke="#2D3A4A" stroke-width="0.2" stroke-miterlimit="10"/>
<path d="M76.3921 23.4864V27.4256H74.6035H74.4048H74.3054C74.0073 27.4256 73.7672 27.3843 73.585 27.3018C73.4029 27.2192 73.2455 27.1118 73.1131 26.9797C72.9971 26.831 72.9143 26.6659 72.8646 26.4842C72.815 26.3025 72.7901 26.0961 72.7901 25.8648V19.0518H71.7468V26.4346C71.7468 26.7319 71.6971 26.9714 71.5978 27.1531C71.4984 27.3348 71.2831 27.4256 70.9519 27.4256H69.4366V21.6779H68.3933V27.4256H65.5117V28.4662H71.0264C71.192 28.4662 71.3576 28.4579 71.5233 28.4414C71.6723 28.4249 71.8213 28.3836 71.9704 28.3175C72.1029 28.2349 72.2271 28.1276 72.343 27.9955C72.4589 27.8633 72.5666 27.6899 72.6659 27.4752C72.7322 27.6734 72.815 27.8303 72.9143 27.9459C73.0303 28.078 73.1627 28.1854 73.3118 28.268C73.4443 28.3506 73.5933 28.4084 73.7589 28.4414C73.9245 28.4579 74.0902 28.4662 74.2558 28.4662H74.4048H74.6035H77.4354V23.4864H76.3921Z" fill="#2D3A4A" stroke="#2D3A4A" stroke-width="0.2" stroke-miterlimit="10"/>
<path d="M76.8149 29.9775C76.6493 29.9775 76.5086 30.0436 76.3927 30.1757C76.2767 30.2913 76.2188 30.4317 76.2188 30.5969C76.2188 30.7621 76.2767 30.9025 76.3927 31.0181C76.5086 31.1337 76.6493 31.1915 76.8149 31.1915C76.9805 31.1915 77.1213 31.1337 77.2373 31.0181C77.3697 30.9025 77.436 30.7621 77.436 30.5969C77.436 30.4317 77.3697 30.2913 77.2373 30.1757C77.1213 30.0436 76.9805 29.9775 76.8149 29.9775Z" fill="#2D3A4A" stroke="#2D3A4A" stroke-width="0.2" stroke-miterlimit="10"/>
<path fill-rule="evenodd" clip-rule="evenodd" d="M89.084 23.5113C89.084 23.5113 89.0757 23.503 89.0592 23.4865C89.0095 23.4369 88.9681 23.3791 88.935 23.3131C88.9184 23.2305 88.9102 23.1562 88.9102 23.0901V9.90991C88.9102 9.82733 88.9184 9.753 88.935 9.68694C88.9515 9.67042 88.9598 9.66216 88.9598 9.66216C88.9929 9.59609 89.0343 9.53829 89.084 9.48874L98.4243 0.173423C98.5236 0.0495488 98.6727 0 98.8465 0H112.037C112.211 0 112.36 0.0495488 112.484 0.173423L120.185 7.8536L121.8 9.48874H121.824C121.874 9.53829 121.907 9.59609 121.924 9.66216C121.94 9.66216 121.949 9.67042 121.949 9.68694C121.982 9.753 121.998 9.82733 121.998 9.90991V23.0901C121.998 23.1562 121.982 23.2305 121.949 23.3131C121.916 23.3791 121.874 23.4369 121.824 23.4865C121.824 23.503 121.824 23.5113 121.824 23.5113L112.484 32.8266C112.418 32.8761 112.352 32.9174 112.285 32.9504C112.203 32.9835 112.12 33 112.037 33H98.8465C98.7637 33 98.6892 32.9835 98.6229 32.9504C98.5401 32.9174 98.4739 32.8761 98.4243 32.8266L89.084 23.5113ZM120.756 10.8266L114.372 13.4775V19.5225L120.756 22.1734V10.8266ZM120.284 23.2883L113.9 20.6374L109.628 24.9234L112.261 31.2905L120.284 23.2883ZM98.6229 31.3153L101.256 24.9482L96.9586 20.6622L90.5745 23.2883L98.6229 31.3153ZM90.1273 22.1734L96.5115 19.5473V13.4775L90.1273 10.8514V22.1734ZM90.5994 9.71171L96.9835 12.3378L101.281 8.0518L98.6229 1.68469L90.5994 9.71171ZM113.18 19.6959V13.3288L108.659 8.81982H102.275L97.7535 13.3288V19.6959L102.275 24.205H108.659L113.18 19.6959ZM111.143 1.23874H99.7905L102.424 7.60585H108.51L111.143 1.23874ZM99.7657 31.786H111.143L108.485 25.4189H102.424L99.7657 31.786ZM120.284 9.71171L112.261 1.68469L109.603 8.0518L113.9 12.3378L120.284 9.71171Z" fill="url(#paint0_linear_2382_31658)"/>
<mask id="path-10-inside-1_2382_31658" fill="white">
<path fill-rule="evenodd" clip-rule="evenodd" d="M5.49701 4.6084C7.07027 4.6084 8.28746 4.97176 9.14862 5.69849C10.0098 6.42521 10.4404 7.4575 10.4404 8.79533C10.4404 10.1497 10.0098 11.1985 9.14862 11.9417C8.28746 12.7015 7.07027 13.0814 5.49701 13.0814H1.47278V17.4913H1.125V4.6084H5.49701ZM1.47278 13.0814V12.9079L1.29887 13.0814H1.47278ZM5.49701 12.7097C6.95434 12.7097 8.08046 12.3629 8.87537 11.6692C9.67028 10.992 10.0678 10.0341 10.0678 8.79533C10.0678 7.57311 9.67028 6.63167 8.87537 5.97101C8.08046 5.31035 6.95434 4.98002 5.49701 4.98002H1.47278V12.7097H5.49701ZM1.49761 4.98002V4.80659L1.32371 4.98002H1.49761ZM1.49761 12.7097H1.32371L1.49761 12.8584V12.7097Z"/>
</mask>
<path fill-rule="evenodd" clip-rule="evenodd" d="M5.49701 4.6084C7.07027 4.6084 8.28746 4.97176 9.14862 5.69849C10.0098 6.42521 10.4404 7.4575 10.4404 8.79533C10.4404 10.1497 10.0098 11.1985 9.14862 11.9417C8.28746 12.7015 7.07027 13.0814 5.49701 13.0814H1.47278V17.4913H1.125V4.6084H5.49701ZM1.47278 13.0814V12.9079L1.29887 13.0814H1.47278ZM5.49701 12.7097C6.95434 12.7097 8.08046 12.3629 8.87537 11.6692C9.67028 10.992 10.0678 10.0341 10.0678 8.79533C10.0678 7.57311 9.67028 6.63167 8.87537 5.97101C8.08046 5.31035 6.95434 4.98002 5.49701 4.98002H1.47278V12.7097H5.49701ZM1.49761 4.98002V4.80659L1.32371 4.98002H1.49761ZM1.49761 12.7097H1.32371L1.49761 12.8584V12.7097Z" fill="#2D3A4A"/>
<path d="M9.14862 11.9417L-49.6554 -56.1911L-50.0263 -55.871L-50.3937 -55.5469L9.14862 11.9417ZM1.47278 17.4913V107.491H91.4728V17.4913H1.47278ZM1.125 17.4913H-88.875V107.491H1.125V17.4913ZM1.125 4.6084V-85.3916H-88.875V4.6084H1.125ZM1.47278 12.9079H91.4728V-203.945L-62.0784 -50.82L1.47278 12.9079ZM1.29887 13.0814L-62.2523 -50.6466L-216.408 103.081H1.29887V13.0814ZM8.87537 11.6692L-49.4881 -56.8414L-49.8964 -56.4936L-50.3004 -56.141L8.87537 11.6692ZM1.47278 4.98002V-85.02H-88.5272V4.98002H1.47278ZM1.47278 12.7097H-88.5272V102.71H1.47278V12.7097ZM1.49761 4.98002V94.98H91.4976V4.98002H1.49761ZM1.49761 4.80659H91.4976V-212.05L-62.0542 -58.9206L1.49761 4.80659ZM1.32371 4.98002L-62.2281 -58.7472L-216.38 94.98H1.32371V4.98002ZM1.49761 12.7097H91.4976V-77.2903H1.49761V12.7097ZM1.32371 12.7097V-77.2903H-242.485L-57.1533 81.1235L1.32371 12.7097ZM1.49761 12.8584L-56.9794 81.2721L91.4976 208.184V12.8584H1.49761ZM5.49701 94.6084C-5.83065 94.6084 -28.1153 92.0163 -48.8957 74.4797L67.193 -63.0827C44.6902 -82.0728 19.9712 -85.3916 5.49701 -85.3916V94.6084ZM-48.8957 74.4797C-59.3145 65.6873 -67.6107 54.4562 -72.9461 41.6652C-78.1142 29.2754 -79.5596 17.7355 -79.5596 8.79533H100.44C100.44 -13.5742 92.1644 -42.0093 67.193 -63.0827L-48.8957 74.4797ZM-79.5596 8.79533C-79.5596 -0.0178678 -78.1529 -11.3711 -73.1391 -23.5834C-67.9652 -36.1858 -59.8922 -47.356 -49.6554 -56.1911L67.9526 80.0746C92.4259 58.9523 100.44 30.8346 100.44 8.79533H-79.5596ZM-50.3937 -55.5469C-29.5867 -73.904 -6.70924 -76.9186 5.49701 -76.9186V103.081C20.8498 103.081 46.1616 99.307 68.691 79.4303L-50.3937 -55.5469ZM5.49701 -76.9186H1.47278V103.081H5.49701V-76.9186ZM-88.5272 13.0814V17.4913H91.4728V13.0814H-88.5272ZM1.47278 -72.5087H1.125V107.491H1.47278V-72.5087ZM91.125 17.4913V4.6084H-88.875V17.4913H91.125ZM1.125 94.6084H5.49701V-85.3916H1.125V94.6084ZM91.4728 13.0814V12.9079H-88.5272V13.0814H91.4728ZM-62.0784 -50.82L-62.2523 -50.6466L64.85 76.8093L65.0239 76.6359L-62.0784 -50.82ZM1.29887 103.081H1.47278V-76.9186H1.29887V103.081ZM5.49701 102.71C20.4175 102.71 45.5373 99.1266 68.0512 79.4794L-50.3004 -56.141C-29.3764 -74.4007 -6.50882 -77.2903 5.49701 -77.2903V102.71ZM67.2389 80.1798C91.8927 59.1775 100.068 30.9866 100.068 8.79533H-79.9322C-79.9322 -0.167795 -78.4873 -11.6879 -73.3592 -24.0477C-68.0682 -36.7999 -59.8407 -48.0221 -49.4881 -56.8414L67.2389 80.1798ZM100.068 8.79533C100.068 -13.7665 91.5979 -42.3032 66.4012 -63.2444L-48.6505 75.1865C-59.1992 66.4193 -67.6733 55.1353 -73.1439 42.1774C-78.444 29.6236 -79.9322 17.8981 -79.9322 8.79533H100.068ZM66.4012 -63.2444C43.9375 -81.9143 19.476 -85.02 5.49701 -85.02V94.98C-5.56727 94.98 -27.7766 92.535 -48.6505 75.1865L66.4012 -63.2444ZM5.49701 -85.02H1.47278V94.98H5.49701V-85.02ZM-88.5272 4.98002V12.7097H91.4728V4.98002H-88.5272ZM1.47278 102.71H5.49701V-77.2903H1.47278V102.71ZM91.4976 4.98002V4.80659H-88.5024V4.98002H91.4976ZM-62.0542 -58.9206L-62.2281 -58.7472L64.8756 68.7073L65.0495 68.5338L-62.0542 -58.9206ZM1.32371 94.98H1.49761V-85.02H1.32371V94.98ZM1.49761 -77.2903H1.32371V102.71H1.49761V-77.2903ZM-57.1533 81.1235L-56.9794 81.2721L59.9746 -55.5553L59.8007 -55.704L-57.1533 81.1235ZM91.4976 12.8584V12.7097H-88.5024V12.8584H91.4976Z" fill="#2D3A4A" mask="url(#path-10-inside-1_2382_31658)"/>
<mask id="path-12-inside-2_2382_31658" fill="white">
<path d="M17.0742 4.6084H17.4468V17.1197H23.2348V17.4913H17.0742V4.6084Z"/>
</mask>
<path d="M17.0742 4.6084H17.4468V17.1197H23.2348V17.4913H17.0742V4.6084Z" fill="#2D3A4A"/>
<path d="M17.0742 4.6084V-85.3916H-72.9258V4.6084H17.0742ZM17.4468 4.6084H107.447V-85.3916H17.4468V4.6084ZM17.4468 17.1197H-72.5532V107.12H17.4468V17.1197ZM23.2348 17.1197H113.235V-72.8803H23.2348V17.1197ZM23.2348 17.4913V107.491H113.235V17.4913H23.2348ZM17.0742 17.4913H-72.9258V107.491H17.0742V17.4913ZM17.0742 94.6084H17.4468V-85.3916H17.0742V94.6084ZM-72.5532 4.6084V17.1197H107.447V4.6084H-72.5532ZM17.4468 107.12H23.2348V-72.8803H17.4468V107.12ZM-66.7652 17.1197V17.4913H113.235V17.1197H-66.7652ZM23.2348 -72.5087H17.0742V107.491H23.2348V-72.5087ZM107.074 17.4913V4.6084H-72.9258V17.4913H107.074Z" fill="#2D3A4A" mask="url(#path-12-inside-2_2382_31658)"/>
<mask id="path-14-inside-3_2382_31658" fill="white">
<path fill-rule="evenodd" clip-rule="evenodd" d="M33.7676 4.6084H34.1899L40.1766 17.4913H39.7543L37.9409 13.5769H38.0154V13.2052H37.767L33.9663 5.02957L30.265 13.2052H29.9918V13.5769H30.0912L28.3026 17.4913H27.8555L33.7676 4.6084ZM37.9161 13.5769L37.7422 13.2052H30.2402L30.0663 13.5769H37.9161Z"/>
</mask>
<path fill-rule="evenodd" clip-rule="evenodd" d="M33.7676 4.6084H34.1899L40.1766 17.4913H39.7543L37.9409 13.5769H38.0154V13.2052H37.767L33.9663 5.02957L30.265 13.2052H29.9918V13.5769H30.0912L28.3026 17.4913H27.8555L33.7676 4.6084ZM37.9161 13.5769L37.7422 13.2052H30.2402L30.0663 13.5769H37.9161Z" fill="#2D3A4A"/>
<path d="M33.7676 4.6084V-85.3916H-23.9546L-48.0301 -32.9299L33.7676 4.6084ZM34.1899 4.6084L115.808 -33.3194L91.6099 -85.3916H34.1899V4.6084ZM40.1766 17.4913V107.491H181.242L121.794 -20.4365L40.1766 17.4913ZM39.7543 17.4913L-41.9084 55.3226L-17.7405 107.491H39.7543V17.4913ZM37.9409 13.5769V-76.4231H-102.941L-43.7218 51.4082L37.9409 13.5769ZM38.0154 13.5769V103.577H128.015V13.5769H38.0154ZM38.0154 13.2052H128.015V-76.7948H38.0154V13.2052ZM37.767 13.2052L-43.8453 51.1449L-19.6437 103.205H37.767V13.2052ZM33.9663 5.02957L115.579 -32.9101L32.8828 -210.798L-48.0229 -32.0888L33.9663 5.02957ZM30.265 13.2052V103.205H88.3135L112.254 50.3236L30.265 13.2052ZM29.9918 13.2052V-76.7948H-60.0082V13.2052H29.9918ZM29.9918 13.5769H-60.0082V103.577H29.9918V13.5769ZM30.0912 13.5769L111.951 50.9795L170.163 -76.4231L30.0912 -76.4231V13.5769ZM28.3026 17.4913V107.491H86.1302L110.163 54.8939L28.3026 17.4913ZM27.8555 17.4913L-53.9423 -20.047L-112.472 107.491H27.8555V17.4913ZM37.9161 13.5769V103.577H179.389L119.435 -24.5641L37.9161 13.5769ZM37.7422 13.2052L119.261 -24.9357L94.9968 -76.7948H37.7422V13.2052ZM30.2402 13.2052V-76.7948H-27.0144L-51.2783 -24.9357L30.2402 13.2052ZM30.0663 13.5769L-51.4522 -24.5641L-111.407 103.577H30.0663V13.5769ZM33.7676 94.6084H34.1899V-85.3916H33.7676V94.6084ZM-47.428 42.5362L-41.4413 55.4191L121.794 -20.4365L115.808 -33.3194L-47.428 42.5362ZM40.1766 -72.5087H39.7543V107.491H40.1766V-72.5087ZM121.417 -20.34L119.604 -24.2544L-43.7218 51.4082L-41.9084 55.3226L121.417 -20.34ZM37.9409 103.577H38.0154V-76.4231H37.9409V103.577ZM128.015 13.5769V13.2052H-51.9846V13.5769H128.015ZM38.0154 -76.7948H37.767V103.205H38.0154V-76.7948ZM119.379 -24.7345L115.579 -32.9101L-47.646 42.9693L-43.8453 51.1449L119.379 -24.7345ZM-48.0229 -32.0888L-51.7242 -23.9131L112.254 50.3236L115.956 42.1479L-48.0229 -32.0888ZM30.265 -76.7948H29.9918V103.205H30.265V-76.7948ZM-60.0082 13.2052V13.5769H119.992V13.2052H-60.0082ZM29.9918 103.577H30.0912V-76.4231H29.9918V103.577ZM-51.7687 -23.8258L-53.5573 -19.9114L110.163 54.8939L111.951 50.9795L-51.7687 -23.8258ZM28.3026 -72.5087H27.8555V107.491H28.3026V-72.5087ZM109.653 55.0296L115.565 42.1467L-48.0301 -32.9299L-53.9423 -20.047L109.653 55.0296ZM119.435 -24.5641L119.261 -24.9357L-43.7763 51.3462L-43.6024 51.7178L119.435 -24.5641ZM37.7422 -76.7948H30.2402V103.205H37.7422V-76.7948ZM-51.2783 -24.9357L-51.4522 -24.5641L111.585 51.7178L111.759 51.3462L-51.2783 -24.9357ZM30.0663 103.577H37.9161V-76.4231H30.0663V103.577Z" fill="#2D3A4A" mask="url(#path-14-inside-3_2382_31658)"/>
<mask id="path-16-inside-4_2382_31658" fill="white">
<path d="M43.1797 4.6084H52.4454V4.98002H47.9988V17.4913H47.6262V4.98002H43.1797V4.6084Z"/>
</mask>
<path d="M43.1797 4.6084H52.4454V4.98002H47.9988V17.4913H47.6262V4.98002H43.1797V4.6084Z" fill="#2D3A4A"/>
<path d="M43.1797 4.6084V-85.3916H-46.8203V4.6084H43.1797ZM52.4454 4.6084H142.445V-85.3916H52.4454V4.6084ZM52.4454 4.98002V94.98H142.445V4.98002H52.4454ZM47.9988 4.98002V-85.02H-42.0012V4.98002H47.9988ZM47.9988 17.4913V107.491H137.999V17.4913H47.9988ZM47.6262 17.4913H-42.3738V107.491H47.6262V17.4913ZM47.6262 4.98002H137.626V-85.02H47.6262V4.98002ZM43.1797 4.98002H-46.8203V94.98H43.1797V4.98002ZM43.1797 94.6084H52.4454V-85.3916H43.1797V94.6084ZM-37.5546 4.6084V4.98002H142.445V4.6084H-37.5546ZM52.4454 -85.02H47.9988V94.98H52.4454V-85.02ZM-42.0012 4.98002V17.4913H137.999V4.98002H-42.0012ZM47.9988 -72.5087H47.6262V107.491H47.9988V-72.5087ZM137.626 17.4913V4.98002H-42.3738V17.4913H137.626ZM47.6262 -85.02H43.1797V94.98H47.6262V-85.02ZM133.18 4.98002V4.6084H-46.8203V4.98002H133.18Z" fill="#2D3A4A" mask="url(#path-16-inside-4_2382_31658)"/>
<mask id="path-18-inside-5_2382_31658" fill="white">
<path d="M58.7578 4.6084H59.1304V17.4913H58.7578V4.6084Z"/>
</mask>
<path d="M58.7578 4.6084H59.1304V17.4913H58.7578V4.6084Z" fill="#2D3A4A"/>
<path d="M58.7578 4.6084V-85.3916H-31.2422V4.6084H58.7578ZM59.1304 4.6084H149.13V-85.3916H59.1304V4.6084ZM59.1304 17.4913V107.491H149.13V17.4913H59.1304ZM58.7578 17.4913H-31.2422V107.491H58.7578V17.4913ZM58.7578 94.6084H59.1304V-85.3916H58.7578V94.6084ZM-30.8696 4.6084V17.4913H149.13V4.6084H-30.8696ZM59.1304 -72.5087H58.7578V107.491H59.1304V-72.5087ZM148.758 17.4913V4.6084H-31.2422V17.4913H148.758Z" fill="#2D3A4A" mask="url(#path-18-inside-5_2382_31658)"/>
<mask id="path-20-inside-6_2382_31658" fill="white">
<path d="M67.5508 4.6084H68.1221L77.3381 17.2683L77.2388 17.2931V4.6084H77.6114V17.4913H77.04L67.8489 4.83137L67.9234 4.80659V17.4913H67.5508V4.6084Z"/>
</mask>
<path d="M67.5508 4.6084H68.1221L77.3381 17.2683L77.2388 17.2931V4.6084H77.6114V17.4913H77.04L67.8489 4.83137L67.9234 4.80659V17.4913H67.5508V4.6084Z" fill="#2D3A4A"/>
<path d="M67.5508 4.6084V-85.3916H-22.4492V4.6084H67.5508ZM68.1221 4.6084L140.884 -48.3601L113.927 -85.3916H68.1221V4.6084ZM77.3381 17.2683L99.1178 104.593L228.702 72.2737L150.1 -35.7002L77.3381 17.2683ZM77.2388 17.2931H-12.7612V132.497L99.0185 104.618L77.2388 17.2931ZM77.2388 4.6084V-85.3916H-12.7612V4.6084H77.2388ZM77.6114 4.6084H167.611V-85.3916H77.6114V4.6084ZM77.6114 17.4913V107.491H167.611V17.4913H77.6114ZM77.04 17.4913L4.20989 70.3663L31.1628 107.491H77.04V17.4913ZM67.8489 4.83137L39.4593 -80.5737L-77.2159 -41.7896L-4.98127 57.7064L67.8489 4.83137ZM67.9234 4.80659H157.923V-119.953L39.5338 -80.5985L67.9234 4.80659ZM67.9234 17.4913V107.491H157.923V17.4913H67.9234ZM67.5508 17.4913H-22.4492V107.491H67.5508V17.4913ZM67.5508 94.6084H68.1221V-85.3916H67.5508V94.6084ZM-4.6401 57.5769L4.57589 70.2368L150.1 -35.7002L140.884 -48.3601L-4.6401 57.5769ZM55.5584 -70.0566L55.4591 -70.0319L99.0185 104.618L99.1178 104.593L55.5584 -70.0566ZM167.239 17.2931V4.6084H-12.7612V17.2931H167.239ZM77.2388 94.6084H77.6114V-85.3916H77.2388V94.6084ZM-12.3886 4.6084V17.4913H167.611V4.6084H-12.3886ZM77.6114 -72.5087H77.04V107.491H77.6114V-72.5087ZM149.87 -35.3838L140.679 -48.0437L-4.98127 57.7064L4.20989 70.3663L149.87 -35.3838ZM96.2385 90.2365L96.313 90.2117L39.5338 -80.5985L39.4593 -80.5737L96.2385 90.2365ZM-22.0766 4.80659V17.4913H157.923V4.80659H-22.0766ZM67.9234 -72.5087H67.5508V107.491H67.9234V-72.5087ZM157.551 17.4913V4.6084H-22.4492V17.4913H157.551Z" fill="#2D3A4A" mask="url(#path-20-inside-6_2382_31658)"/>
<defs>
<linearGradient id="paint0_linear_2382_31658" x1="88.899" y1="-0.00520357" x2="121.993" y2="-0.00520357" gradientUnits="userSpaceOnUse">
<stop offset="0.033" stop-color="#DBBA95"/>
<stop offset="1" stop-color="#B9926D"/>
</linearGradient>
</defs>
</svg>
