<svg width="33" height="32" viewBox="0 0 33 32" fill="none" xmlns="http://www.w3.org/2000/svg">
<g id="Vector">
<path id="Vector_2" fill-rule="evenodd" clip-rule="evenodd" d="M16.2615 5.83956V7.23586C16.218 8.79924 15.5586 10.2841 14.4238 11.3747C13.2891 12.4652 11.7684 13.0754 10.1853 13.0754C8.60211 13.0754 7.08143 12.4652 5.94663 11.3747C4.81184 10.2841 4.15249 8.79924 4.10892 7.23586V5.83956C4.15256 4.27618 4.8119 2.79129 5.94663 1.70073C7.08143 0.61018 8.60211 0 10.1852 0C11.7684 0 13.289 0.61018 14.4238 1.70073C15.5586 2.79129 16.218 4.27618 16.2615 5.83956ZM20.7326 20.9937H30.6359C30.8372 21.0047 31.0388 20.9752 31.2281 20.9067C31.4175 20.8383 31.5908 20.7323 31.7373 20.5955C31.8839 20.4586 32.0006 20.2936 32.0804 20.1105C32.16 19.9276 32.2012 19.7304 32.2012 19.5312C32.2012 19.332 32.16 19.1349 32.0804 18.9519C32.0005 18.769 31.8839 18.6039 31.7373 18.4671C31.5908 18.3301 31.4175 18.2242 31.2281 18.1557C31.0388 18.0872 30.8372 18.0576 30.6359 18.0688H20.7326C20.3544 18.0896 19.9984 18.2528 19.7381 18.5249C19.4777 18.7969 19.3326 19.157 19.3326 19.5313C19.3326 19.9057 19.4777 20.2658 19.7381 20.5378C19.9983 20.8096 20.3544 20.9728 20.7326 20.9937ZM20.7326 23.5627H30.6359C30.8372 23.5516 31.0388 23.5812 31.2281 23.6497C31.4175 23.7181 31.5908 23.8241 31.7373 23.9609C31.8839 24.0978 32.0006 24.2628 32.0804 24.4459C32.16 24.6288 32.2012 24.826 32.2012 25.0252C32.2012 25.2244 32.16 25.4215 32.0804 25.6045C32.0005 25.7876 31.8839 25.9525 31.7373 26.0893C31.5908 26.2263 31.4175 26.3322 31.2281 26.4007C31.0388 26.4692 30.8372 26.4988 30.6359 26.4876H20.7326C20.3544 26.4668 19.9984 26.3036 19.7381 26.0315C19.4777 25.7595 19.3326 25.3994 19.3326 25.0251C19.3326 24.6507 19.4777 24.2906 19.7381 24.0187C19.9983 23.7468 20.3544 23.5836 20.7326 23.5627ZM25.0837 29.0658H20.7326C20.3543 29.0866 19.9983 29.2499 19.738 29.5219C19.4777 29.7939 19.3326 30.154 19.3326 30.5283C19.3326 30.9027 19.4777 31.2628 19.738 31.5349C19.9983 31.8069 20.3544 31.9699 20.7326 31.9909H25.0837C25.2851 32.0019 25.4867 31.9725 25.676 31.904C25.8655 31.8355 26.0387 31.7296 26.1853 31.5926C26.3317 31.4556 26.4485 31.2907 26.5282 31.1076C26.608 30.9247 26.6491 30.7277 26.6491 30.5283C26.6491 30.3291 26.608 30.132 26.5282 29.949C26.4485 29.7661 26.3317 29.6011 26.1853 29.4642C26.0387 29.3272 25.8654 29.2213 25.676 29.1528C25.4867 29.0843 25.2851 29.0547 25.0837 29.0658ZM16.8975 31.5696C17.1753 31.2952 17.3319 30.9234 17.3332 30.5352C17.3359 30.4859 17.3297 30.4365 17.3146 30.3892V18.7533C17.3004 18.3485 17.1263 17.9651 16.8297 17.6854C15.3915 16.4226 13.6147 15.5968 11.713 15.3075C9.8112 15.0181 7.86527 15.2775 6.10906 16.0543C4.35285 16.8312 2.86111 18.0925 1.81307 19.6867C0.765028 21.281 0.205306 23.1403 0.201172 25.0413V27.948C0.2036 29.0219 0.636533 30.051 1.40521 30.8105C2.17388 31.5699 3.21575 31.9976 4.30284 32H15.8504C16.2433 31.9987 16.6198 31.8439 16.8975 31.5696Z" fill="#2D3A4A"/>
</g>
</svg>
