<svg width="33" height="32" viewBox="0 0 33 32" fill="none" xmlns="http://www.w3.org/2000/svg">
<g id="Vector">
<path id="Vector_2" fill-rule="evenodd" clip-rule="evenodd" d="M16.9901 5.83956V7.23586C16.9466 8.79924 16.2871 10.2841 15.1523 11.3747C14.0176 12.4652 12.4969 13.0754 10.9138 13.0754C9.33063 13.0754 7.80995 12.4652 6.67515 11.3747C5.54035 10.2841 4.88101 8.79924 4.83743 7.23586V5.83956C4.88108 4.27618 5.54042 2.79129 6.67515 1.70073C7.80995 0.61018 9.33063 0 10.9137 0C12.4969 0 14.0175 0.61018 15.1523 1.70073C16.2871 2.79129 16.9466 4.27618 16.9901 5.83956ZM21.4611 20.9937H31.3645C31.5657 21.0047 31.7673 20.9752 31.9566 20.9067C32.1461 20.8383 32.3193 20.7323 32.4658 20.5955C32.6124 20.4586 32.7291 20.2936 32.8089 20.1105C32.8885 19.9276 32.9297 19.7304 32.9297 19.5312C32.9297 19.332 32.8885 19.1349 32.8089 18.9519C32.729 18.769 32.6124 18.6039 32.4658 18.4671C32.3193 18.3301 32.146 18.2242 31.9566 18.1557C31.7673 18.0872 31.5657 18.0576 31.3645 18.0688H21.4611C21.0829 18.0896 20.7269 18.2528 20.4666 18.5249C20.2062 18.7969 20.0611 19.157 20.0611 19.5313C20.0611 19.9057 20.2062 20.2658 20.4666 20.5378C20.7269 20.8096 21.0829 20.9728 21.4611 20.9937ZM21.4611 23.5627H31.3645C31.5657 23.5516 31.7673 23.5812 31.9566 23.6497C32.1461 23.7181 32.3193 23.8241 32.4658 23.9609C32.6124 24.0978 32.7291 24.2628 32.8089 24.4459C32.8885 24.6288 32.9297 24.826 32.9297 25.0252C32.9297 25.2244 32.8885 25.4215 32.8089 25.6045C32.729 25.7876 32.6124 25.9525 32.4658 26.0893C32.3193 26.2263 32.146 26.3322 31.9566 26.4007C31.7673 26.4692 31.5657 26.4988 31.3645 26.4876H21.4611C21.0829 26.4668 20.7269 26.3036 20.4666 26.0315C20.2062 25.7595 20.0611 25.3994 20.0611 25.0251C20.0611 24.6507 20.2062 24.2906 20.4666 24.0187C20.7269 23.7468 21.0829 23.5836 21.4611 23.5627ZM25.8122 29.0658H21.4611C21.0828 29.0866 20.7269 29.2499 20.4665 29.5219C20.2062 29.7939 20.0611 30.154 20.0611 30.5283C20.0611 30.9027 20.2062 31.2628 20.4665 31.5349C20.7269 31.8069 21.0829 31.9699 21.4611 31.9909H25.8122C26.0137 32.0019 26.2153 31.9725 26.4045 31.904C26.594 31.8355 26.7672 31.7296 26.9138 31.5926C27.0602 31.4556 27.177 31.2907 27.2567 31.1076C27.3365 30.9247 27.3776 30.7277 27.3776 30.5283C27.3776 30.3291 27.3365 30.132 27.2567 29.949C27.177 29.7661 27.0602 29.6011 26.9138 29.4642C26.7672 29.3272 26.5939 29.2213 26.4045 29.1528C26.2153 29.0843 26.0137 29.0547 25.8122 29.0658ZM17.626 31.5696C17.9038 31.2952 18.0604 30.9234 18.0617 30.5352C18.0644 30.4859 18.0582 30.4365 18.0432 30.3892V18.7533C18.0289 18.3485 17.8548 17.9651 17.5582 17.6854C16.12 16.4226 14.3432 15.5968 12.4415 15.3075C10.5397 15.0181 8.59378 15.2775 6.83757 16.0543C5.08137 16.8312 3.58963 18.0925 2.54159 19.6867C1.49354 21.281 0.933822 23.1403 0.929688 25.0413V27.948C0.932116 29.0219 1.36505 30.051 2.13372 30.8105C2.9024 31.5699 3.94427 31.9976 5.03136 32H16.5789C16.9718 31.9987 17.3483 31.8439 17.626 31.5696Z" fill="#919EAB"/>
</g>
</svg>
