<svg width="33" height="32" viewBox="0 0 33 32" fill="none" xmlns="http://www.w3.org/2000/svg">
<path fill-rule="evenodd" clip-rule="evenodd" d="M16.6307 5.83956V7.23586C16.5872 8.79924 15.9278 10.2841 14.793 11.3747C13.6582 12.4652 12.1376 13.0754 10.5544 13.0754C8.97125 13.0754 7.45057 12.4652 6.31578 11.3747C5.18098 10.2841 4.52163 8.79924 4.47806 7.23586V5.83956C4.5217 4.27618 5.18104 2.79129 6.31578 1.70073C7.45057 0.61018 8.97125 0 10.5543 0C12.1375 0 13.6582 0.61018 14.7929 1.70073C15.9278 2.79129 16.5872 4.27618 16.6307 5.83956ZM21.1018 20.9937H31.0051C31.2064 21.0047 31.408 20.9752 31.5972 20.9067C31.7867 20.8383 31.9599 20.7323 32.1065 20.5955C32.253 20.4586 32.3697 20.2936 32.4495 20.1105C32.5292 19.9276 32.5703 19.7304 32.5703 19.5312C32.5703 19.332 32.5292 19.1349 32.4495 18.9519C32.3696 18.769 32.253 18.6039 32.1065 18.4671C31.9599 18.3301 31.7866 18.2242 31.5972 18.1557C31.408 18.0872 31.2064 18.0576 31.0051 18.0688H21.1018C20.7235 18.0896 20.3675 18.2528 20.1072 18.5249C19.8469 18.7969 19.7018 19.157 19.7018 19.5313C19.7018 19.9057 19.8469 20.2658 20.1072 20.5378C20.3675 20.8096 20.7235 20.9728 21.1018 20.9937ZM21.1018 23.5627H31.0051C31.2064 23.5516 31.408 23.5812 31.5972 23.6497C31.7867 23.7181 31.9599 23.8241 32.1065 23.9609C32.253 24.0978 32.3697 24.2628 32.4495 24.4459C32.5292 24.6288 32.5703 24.826 32.5703 25.0252C32.5703 25.2244 32.5292 25.4215 32.4495 25.6045C32.3696 25.7876 32.253 25.9525 32.1065 26.0893C31.9599 26.2263 31.7866 26.3322 31.5972 26.4007C31.408 26.4692 31.2064 26.4988 31.0051 26.4876H21.1018C20.7235 26.4668 20.3675 26.3036 20.1072 26.0315C19.8469 25.7595 19.7018 25.3994 19.7018 25.0251C19.7018 24.6507 19.8469 24.2906 20.1072 24.0187C20.3675 23.7468 20.7235 23.5836 21.1018 23.5627ZM25.4528 29.0658H21.1017C20.7234 29.0866 20.3675 29.2499 20.1071 29.5219C19.8468 29.7939 19.7017 30.154 19.7017 30.5283C19.7017 30.9027 19.8468 31.2628 20.1071 31.5349C20.3675 31.8069 20.7235 31.9699 21.1017 31.9909H25.4528C25.6543 32.0019 25.8559 31.9725 26.0452 31.904C26.2346 31.8355 26.4079 31.7296 26.5544 31.5926C26.7008 31.4556 26.8176 31.2907 26.8973 31.1076C26.9772 30.9247 27.0182 30.7277 27.0182 30.5283C27.0182 30.3291 26.9771 30.132 26.8973 29.949C26.8176 29.7661 26.7008 29.6011 26.5544 29.4642C26.4079 29.3272 26.2345 29.2213 26.0452 29.1528C25.8559 29.0843 25.6543 29.0547 25.4528 29.0658ZM17.2667 31.5696C17.5445 31.2952 17.701 30.9234 17.7024 30.5352C17.705 30.4859 17.6988 30.4365 17.6838 30.3892V18.7533C17.6695 18.3485 17.4954 17.9651 17.1988 17.6854C15.7606 16.4226 13.9839 15.5968 12.0821 15.3075C10.1803 15.0181 8.23441 15.2775 6.4782 16.0543C4.72199 16.8312 3.23025 18.0925 2.18221 19.6867C1.13417 21.281 0.574447 23.1403 0.570312 25.0413V27.948C0.572741 29.0219 1.00567 30.051 1.77435 30.8105C2.54302 31.5699 3.58489 31.9976 4.67198 32H16.2195C16.6124 31.9987 16.9889 31.8439 17.2667 31.5696Z" fill="#2D3A4A"/>
</svg>
