<svg width="33" height="32" viewBox="0 0 33 32" fill="none" xmlns="http://www.w3.org/2000/svg">
<g id="Group">
<path id="Vector" d="M20.5137 8.52351C22.6945 8.52351 24.4687 6.72385 24.4687 4.51175C24.4687 2.29966 22.6945 0.5 20.5137 0.5C18.3329 0.5 16.5586 2.29966 16.5586 4.51175C16.5586 6.7238 18.3329 8.52351 20.5137 8.52351ZM19.5793 4.15313C19.2872 3.92091 19.1542 3.51729 19.2317 3.09997C19.3163 2.64463 19.6286 2.28231 20.0467 2.15463C20.0742 2.14619 20.1007 2.14083 20.1276 2.13395V1.54595H20.8058V2.10887C21.2259 2.1889 21.4827 2.42184 21.4985 2.43658L21.7477 2.66971L21.2881 3.17545L21.0413 2.94451C21.0298 2.9346 20.946 2.86495 20.8058 2.81673V4.01535C20.8738 4.0411 20.9419 4.06622 21.0087 4.09012C21.6397 4.31642 21.9773 4.88621 21.8687 5.54149C21.7847 6.04771 21.4018 6.55976 20.8059 6.70649V7.32835H20.1277V6.73968C19.8332 6.71607 19.5922 6.63931 19.2487 6.4114L18.9649 6.22332L19.3361 5.6476L19.6198 5.83582C19.8232 5.97081 19.9521 6.02585 20.1276 6.04771V4.47605C19.8953 4.36862 19.7205 4.2655 19.5793 4.15313Z" fill="#919EAB"/>
<path id="Vector_2" d="M21.2008 5.42732C21.2202 5.31002 21.2468 4.92001 20.8066 4.74805V5.97962C21.0318 5.86284 21.1656 5.63934 21.2008 5.42732Z" fill="#919EAB"/>
<path id="Vector_3" d="M19.8987 3.22736C19.8686 3.38884 19.9078 3.5398 19.9983 3.61187C20.0367 3.6424 20.0813 3.67194 20.1283 3.70129V2.86816C19.9949 2.95535 19.922 3.10138 19.8987 3.22736Z" fill="#919EAB"/>
<path id="Vector_4" d="M30.2212 4.51149C30.816 4.51149 31.2998 4.02063 31.2998 3.41737C31.2998 2.8141 30.8159 2.32324 30.2212 2.32324C29.6264 2.32324 29.1426 2.81405 29.1426 3.41737C29.1426 4.02068 29.6264 4.51149 30.2212 4.51149Z" fill="#919EAB"/>
<path id="Vector_5" d="M5.41285 6.6999C6.20587 6.6999 6.85104 6.04538 6.85104 5.24109C6.85104 4.43675 6.20587 3.78223 5.41285 3.78223C4.61983 3.78223 3.97461 4.43675 3.97461 5.24109C3.97466 6.04543 4.61983 6.6999 5.41285 6.6999Z" fill="#919EAB"/>
<path id="Vector_6" d="M4.93338 12.5353H29.5027V11.6843C29.5027 10.3436 28.4274 9.25293 27.1056 9.25293H2.41658C1.09478 9.25293 0.0195312 10.3436 0.0195312 11.6843V25.0569C0.0195312 26.1711 0.782915 27.1365 1.81726 27.4097V15.696C1.81726 13.9532 3.21511 12.5353 4.93338 12.5353Z" fill="#919EAB"/>
<path id="Vector_7" d="M2.53711 17.6416H32.0203V20.5593H2.53711V17.6416Z" fill="#919EAB"/>
<path id="Vector_8" d="M29.6232 13.2646H4.93416C3.6124 13.2646 2.53711 14.3554 2.53711 15.696V16.9117H32.0203V15.696C32.0203 14.3554 30.945 13.2646 29.6232 13.2646Z" fill="#919EAB"/>
<path id="Vector_9" d="M2.53711 29.0686C2.53711 30.4092 3.61235 31.4999 4.93416 31.4999H29.6234C30.945 31.4999 32.0203 30.4092 32.0203 29.0685V21.2881H2.53711V29.0686ZM11.4538 27.8932C11.3982 28.0906 11.1954 28.2049 11.0007 28.1485C10.8062 28.0921 10.6934 27.8863 10.749 27.689C10.8046 27.4916 11.0075 27.3773 11.2021 27.4337C11.3967 27.49 11.5094 27.6958 11.4538 27.8932ZM5.05396 23.8411H15.1214C15.32 23.8411 15.4809 24.0043 15.4809 24.2058C15.4809 24.4072 15.32 24.5705 15.1214 24.5705H5.05396C4.85531 24.5705 4.69442 24.4072 4.69442 24.2058C4.69442 24.0043 4.85531 23.8411 5.05396 23.8411ZM5.05396 25.6646H15.1214C15.32 25.6646 15.4809 25.8278 15.4809 26.0293C15.4809 26.2308 15.32 26.394 15.1214 26.394H5.05396C4.85531 26.394 4.69442 26.2308 4.69442 26.0293C4.69437 25.8278 4.85531 25.6646 5.05396 25.6646ZM5.05396 27.4881H10.0877C10.2863 27.4881 10.4472 27.6514 10.4472 27.8528C10.4472 28.0543 10.2863 28.2175 10.0877 28.2175H5.05396C4.85531 28.2175 4.69442 28.0543 4.69442 27.8528C4.69442 27.6514 4.85531 27.4881 5.05396 27.4881Z" fill="#919EAB"/>
<path id="Vector_10" d="M1.99634 3.05306C2.29419 3.05306 2.53564 2.80814 2.53564 2.50602C2.53564 2.2039 2.29419 1.95898 1.99634 1.95898C1.69849 1.95898 1.45703 2.2039 1.45703 2.50602C1.45703 2.80814 1.69849 3.05306 1.99634 3.05306Z" fill="#919EAB"/>
<path id="Vector_11" d="M10.2659 2.32357C10.5637 2.32357 10.8052 2.07865 10.8052 1.77653C10.8052 1.47441 10.5637 1.22949 10.2659 1.22949C9.96802 1.22949 9.72656 1.47441 9.72656 1.77653C9.72656 2.07865 9.96802 2.32357 10.2659 2.32357Z" fill="#919EAB"/>
<path id="Vector_12" d="M14.221 6.69964C14.5189 6.69964 14.7603 6.4547 14.7603 6.15255C14.7603 5.85041 14.5189 5.60547 14.221 5.60547C13.9231 5.60547 13.6816 5.85041 13.6816 6.15255C13.6816 6.4547 13.9231 6.69964 14.221 6.69964Z" fill="#919EAB"/>
<path id="Vector_13" d="M26.4456 1.95843C26.7435 1.95843 26.985 1.71349 26.985 1.41134C26.985 1.1092 26.7435 0.864258 26.4456 0.864258C26.1477 0.864258 25.9062 1.1092 25.9062 1.41134C25.9062 1.71349 26.1477 1.95843 26.4456 1.95843Z" fill="#919EAB"/>
<path id="Vector_14" d="M31.4808 8.88812C31.7786 8.88812 32.0201 8.64318 32.0201 8.34103C32.0201 8.03888 31.7786 7.79395 31.4808 7.79395C31.1829 7.79395 30.9414 8.03888 30.9414 8.34103C30.9414 8.64318 31.1829 8.88812 31.4808 8.88812Z" fill="#919EAB"/>
</g>
</svg>
