<svg width="35" height="34" viewBox="0 0 35 34" fill="none" xmlns="http://www.w3.org/2000/svg">
<g id="Group">
<path id="Vector" d="M17.2969 17.5605H19.165C19.3714 17.5605 19.5386 17.7277 19.5386 17.9341C19.5386 18.1405 19.3714 18.3077 19.165 18.3077H17.2969V19.8022H21.0331V13.8242H17.2969V17.5605Z" fill="#919EAB"/>
<path id="Vector_2" d="M21.4051 13.0765H21.7787V11.582H12.0645V13.0765H12.4381H21.4051Z" fill="#919EAB"/>
<path id="Vector_3" d="M12.8125 13.8242H16.5488V17.5605H12.8125V13.8242Z" fill="#919EAB"/>
<path id="Vector_4" d="M12.8125 18.3076H16.5488V19.8021H12.8125V18.3076Z" fill="#919EAB"/>
<path id="Vector_5" d="M15.8019 10.8353C16.214 10.8353 16.5492 10.5001 16.5492 10.0881C16.5492 9.67604 16.214 9.34082 15.8019 9.34082C15.3899 9.34082 15.0547 9.67604 15.0547 10.0881C15.0547 10.5001 15.3899 10.8353 15.8019 10.8353Z" fill="#919EAB"/>
<path id="Vector_6" d="M18.0441 10.8353C18.4562 10.8353 18.7914 10.5001 18.7914 10.0881C18.7914 9.67604 18.4562 9.34082 18.0441 9.34082C17.6321 9.34082 17.2969 9.67604 17.2969 10.0881C17.2969 10.5001 17.6321 10.8353 18.0441 10.8353Z" fill="#919EAB"/>
<path id="Vector_7" d="M31.1203 23.9125C31.533 23.9125 31.8676 23.5779 31.8676 23.1652C31.8676 22.7525 31.533 22.418 31.1203 22.418C30.7076 22.418 30.373 22.7525 30.373 23.1652C30.373 23.5779 30.7076 23.9125 31.1203 23.9125Z" fill="#919EAB"/>
<path id="Vector_8" d="M33.3625 3.73669C33.7752 3.73669 34.1097 3.40214 34.1097 2.98944C34.1097 2.57674 33.7752 2.24219 33.3625 2.24219C32.9498 2.24219 32.6152 2.57674 32.6152 2.98944C32.6152 3.40214 32.9498 3.73669 33.3625 3.73669Z" fill="#919EAB"/>
<path id="Vector_9" d="M7.20819 1.49451C7.62089 1.49451 7.95544 1.15995 7.95544 0.747253C7.95544 0.334556 7.62089 0 7.20819 0C6.79549 0 6.46094 0.334556 6.46094 0.747253C6.46094 1.15995 6.79549 1.49451 7.20819 1.49451Z" fill="#919EAB"/>
<path id="Vector_10" d="M1.97772 6.72497C2.39042 6.72497 2.72497 6.39042 2.72497 5.97772C2.72497 5.56503 2.39042 5.23047 1.97772 5.23047C1.56503 5.23047 1.23047 5.56503 1.23047 5.97772C1.23047 6.39042 1.56503 6.72497 1.97772 6.72497Z" fill="#919EAB"/>
<path id="Vector_11" d="M23.6476 32.8793C24.0603 32.8793 24.3949 32.5447 24.3949 32.132C24.3949 31.7193 24.0603 31.3848 23.6476 31.3848C23.2349 31.3848 22.9004 31.7193 22.9004 32.132C22.9004 32.5447 23.2349 32.8793 23.6476 32.8793Z" fill="#919EAB"/>
<path id="Vector_12" d="M8.70233 32.8793C9.11503 32.8793 9.44958 32.5447 9.44958 32.132C9.44958 31.7193 9.11503 31.3848 8.70233 31.3848C8.28963 31.3848 7.95508 31.7193 7.95508 32.132C7.95508 32.5447 8.28963 32.8793 8.70233 32.8793Z" fill="#919EAB"/>
<path id="Vector_13" d="M4.21991 24.6595C4.63261 24.6595 4.96716 24.325 4.96716 23.9123C4.96716 23.4996 4.63261 23.165 4.21991 23.165C3.80721 23.165 3.47266 23.4996 3.47266 23.9123C3.47266 24.325 3.80721 24.6595 4.21991 24.6595Z" fill="#919EAB"/>
<path id="Vector_14" d="M30.7082 14.6969C30.7082 7.0954 24.5239 0.911133 16.9225 0.911133C9.32098 0.911133 3.13672 7.0954 3.13672 14.6969C3.13672 17.378 3.86589 19.6841 5.43153 21.9544C6.8132 23.958 8.67214 25.6797 10.6402 27.5024C12.6902 29.4011 14.8099 31.3644 16.6206 33.8465C16.6909 33.943 16.8031 34 16.9225 34C17.0418 34 17.1541 33.943 17.2243 33.8465C19.035 31.3643 21.1549 29.401 23.2047 27.5024C25.1728 25.6796 27.0318 23.9579 28.4134 21.9544C29.9791 19.6841 30.7082 17.378 30.7082 14.6969ZM16.9225 4.76733C22.3977 4.76733 26.8521 9.2217 26.8521 14.6969C26.8521 20.1721 22.3977 24.6265 16.9225 24.6265C11.4473 24.6265 6.99299 20.1722 6.99299 14.697C6.99299 9.22178 11.4473 4.76733 16.9225 4.76733Z" fill="#919EAB"/>
<path id="Vector_15" d="M4.21969 27.2744C3.18961 27.2744 2.35156 28.1125 2.35156 29.1425C2.35156 30.1726 3.18961 31.0107 4.21969 31.0107C5.24978 31.0107 6.08783 30.1726 6.08783 29.1425C6.08783 28.1125 5.24978 27.2744 4.21969 27.2744Z" fill="#919EAB"/>
<path id="Vector_16" d="M29.9996 27.2744C28.7635 27.2744 27.7578 28.2801 27.7578 29.5162C27.7578 30.7523 28.7635 31.7579 29.9996 31.7579C31.2357 31.7579 32.2413 30.7523 32.2413 29.5162C32.2413 28.2801 31.2357 27.2744 29.9996 27.2744Z" fill="#919EAB"/>
<path id="Vector_17" d="M28.8795 3.36249H31.1212C31.3276 3.36249 31.4949 3.19518 31.4949 2.98886C31.4949 2.78254 31.3276 2.61523 31.1212 2.61523H28.8795C28.6731 2.61523 28.5059 2.78254 28.5059 2.98886C28.5059 3.19518 28.6731 3.36249 28.8795 3.36249Z" fill="#919EAB"/>
<path id="Vector_18" d="M1.97751 23.5381H0.483001C0.276685 23.5381 0.109375 23.7053 0.109375 23.9117C0.109375 24.1181 0.276685 24.2853 0.483001 24.2853H1.97751C2.18382 24.2853 2.35113 24.1181 2.35113 23.9117C2.35113 23.7053 2.18382 23.5381 1.97751 23.5381Z" fill="#919EAB"/>
</g>
</svg>
