<svg width="33" height="32" viewBox="0 0 33 32" fill="none" xmlns="http://www.w3.org/2000/svg">
<g id="Group">
<path id="Vector" d="M21.0645 8.52351C23.2452 8.52351 25.0195 6.72385 25.0195 4.51175C25.0195 2.29966 23.2452 0.5 21.0645 0.5C18.8836 0.5 17.1094 2.29966 17.1094 4.51175C17.1094 6.7238 18.8836 8.52351 21.0645 8.52351ZM20.1301 4.15313C19.838 3.92091 19.705 3.51729 19.7824 3.09997C19.867 2.64463 20.1794 2.28231 20.5975 2.15463C20.625 2.14619 20.6515 2.14083 20.6784 2.13395V1.54595H21.3566V2.10887C21.7767 2.1889 22.0335 2.42184 22.0493 2.43658L22.2985 2.66971L21.8389 3.17545L21.5921 2.94451C21.5806 2.9346 21.4968 2.86495 21.3566 2.81673V4.01535C21.4246 4.0411 21.4927 4.06622 21.5595 4.09012C22.1905 4.31642 22.5281 4.88621 22.4195 5.54149C22.3355 6.04771 21.9526 6.55976 21.3566 6.70649V7.32835H20.6785V6.73968C20.384 6.71607 20.143 6.63931 19.7994 6.4114L19.5157 6.22332L19.8869 5.6476L20.1706 5.83582C20.3739 5.97081 20.5029 6.02585 20.6784 6.04771V4.47605C20.4461 4.36862 20.2713 4.2655 20.1301 4.15313Z" fill="#2D3A4A"/>
<path id="Vector_2" d="M21.7496 5.42732C21.769 5.31002 21.7956 4.92001 21.3555 4.74805V5.97962C21.5806 5.86284 21.7144 5.63934 21.7496 5.42732Z" fill="#2D3A4A"/>
<path id="Vector_3" d="M20.4475 3.22736C20.4174 3.38884 20.4566 3.5398 20.5471 3.61187C20.5856 3.6424 20.6302 3.67194 20.6771 3.70129V2.86816C20.5437 2.95535 20.4709 3.10138 20.4475 3.22736Z" fill="#2D3A4A"/>
<path id="Vector_4" d="M30.7739 4.51149C31.3687 4.51149 31.8526 4.02063 31.8526 3.41737C31.8526 2.8141 31.3687 2.32324 30.7739 2.32324C30.1791 2.32324 29.6953 2.81405 29.6953 3.41737C29.6953 4.02068 30.1791 4.51149 30.7739 4.51149Z" fill="#2D3A4A"/>
<path id="Vector_5" d="M5.96168 6.6999C6.75469 6.6999 7.39987 6.04538 7.39987 5.24109C7.39987 4.43675 6.75469 3.78223 5.96168 3.78223C5.16866 3.78223 4.52344 4.43675 4.52344 5.24109C4.52348 6.04543 5.16866 6.6999 5.96168 6.6999Z" fill="#2D3A4A"/>
<path id="Vector_6" d="M5.48416 12.5353H30.0535V11.6843C30.0535 10.3436 28.9782 9.25293 27.6564 9.25293H2.96736C1.64556 9.25293 0.570312 10.3436 0.570312 11.6843V25.0569C0.570312 26.1711 1.3337 27.1365 2.36804 27.4097V15.696C2.36804 13.9532 3.7659 12.5353 5.48416 12.5353Z" fill="#2D3A4A"/>
<path id="Vector_7" d="M3.08594 17.6411H32.5691V20.5588H3.08594V17.6411Z" fill="#2D3A4A"/>
<path id="Vector_8" d="M30.172 13.2646H5.48299C4.16123 13.2646 3.08594 14.3554 3.08594 15.696V16.9117H32.5691V15.696C32.5691 14.3554 31.4938 13.2646 30.172 13.2646Z" fill="#2D3A4A"/>
<path id="Vector_9" d="M3.08594 29.0686C3.08594 30.4092 4.16118 31.4999 5.48299 31.4999H30.1722C31.4938 31.4999 32.5691 30.4092 32.5691 29.0685V21.2881H3.08594V29.0686ZM12.0026 27.8932C11.9471 28.0906 11.7442 28.2049 11.5495 28.1485C11.355 28.0921 11.2423 27.8863 11.2978 27.689C11.3534 27.4916 11.5564 27.3773 11.7509 27.4337C11.9455 27.49 12.0582 27.6958 12.0026 27.8932ZM5.60279 23.8411H15.6702C15.8688 23.8411 16.0298 24.0043 16.0298 24.2058C16.0298 24.4072 15.8688 24.5705 15.6702 24.5705H5.60279C5.40413 24.5705 5.24325 24.4072 5.24325 24.2058C5.24325 24.0043 5.40413 23.8411 5.60279 23.8411ZM5.60279 25.6646H15.6702C15.8688 25.6646 16.0298 25.8278 16.0298 26.0293C16.0298 26.2308 15.8688 26.394 15.6702 26.394H5.60279C5.40413 26.394 5.24325 26.2308 5.24325 26.0293C5.2432 25.8278 5.40413 25.6646 5.60279 25.6646ZM5.60279 27.4881H10.6365C10.8351 27.4881 10.996 27.6514 10.996 27.8528C10.996 28.0543 10.8351 28.2175 10.6365 28.2175H5.60279C5.40413 28.2175 5.24325 28.0543 5.24325 27.8528C5.24325 27.6514 5.40413 27.4881 5.60279 27.4881Z" fill="#2D3A4A"/>
<path id="Vector_10" d="M2.54712 3.05257C2.84497 3.05257 3.08642 2.80765 3.08642 2.50553C3.08642 2.20341 2.84497 1.9585 2.54712 1.9585C2.24927 1.9585 2.00781 2.20341 2.00781 2.50553C2.00781 2.80765 2.24927 3.05257 2.54712 3.05257Z" fill="#2D3A4A"/>
<path id="Vector_11" d="M10.8166 2.32357C11.1145 2.32357 11.356 2.07865 11.356 1.77653C11.356 1.47441 11.1145 1.22949 10.8166 1.22949C10.5188 1.22949 10.2773 1.47441 10.2773 1.77653C10.2773 2.07865 10.5188 2.32357 10.8166 2.32357Z" fill="#2D3A4A"/>
<path id="Vector_12" d="M14.7737 6.69964C15.0716 6.69964 15.3131 6.4547 15.3131 6.15255C15.3131 5.85041 15.0716 5.60547 14.7737 5.60547C14.4759 5.60547 14.2344 5.85041 14.2344 6.15255C14.2344 6.4547 14.4759 6.69964 14.7737 6.69964Z" fill="#2D3A4A"/>
<path id="Vector_13" d="M26.9964 1.95843C27.2943 1.95843 27.5357 1.71349 27.5357 1.41134C27.5357 1.1092 27.2943 0.864258 26.9964 0.864258C26.6985 0.864258 26.457 1.1092 26.457 1.41134C26.457 1.71349 26.6985 1.95843 26.9964 1.95843Z" fill="#2D3A4A"/>
<path id="Vector_14" d="M32.0315 8.8886C32.3294 8.8886 32.5709 8.64367 32.5709 8.34152C32.5709 8.03937 32.3294 7.79443 32.0315 7.79443C31.7337 7.79443 31.4922 8.03937 31.4922 8.34152C31.4922 8.64367 31.7337 8.8886 32.0315 8.8886Z" fill="#2D3A4A"/>
</g>
</svg>
