<svg width="35" height="34" viewBox="0 0 35 34" fill="none" xmlns="http://www.w3.org/2000/svg">
<g id="Group">
<path id="Vector" d="M17.7578 17.5605H19.6259C19.8323 17.5605 19.9996 17.7277 19.9996 17.9341C19.9996 18.1405 19.8323 18.3077 19.6259 18.3077H17.7578V19.8022H21.4941V13.8242H17.7578V17.5605Z" fill="#2D3A4A"/>
<path id="Vector_2" d="M21.868 13.077H22.2416V11.5825H12.5273V13.077H12.901H21.868Z" fill="#2D3A4A"/>
<path id="Vector_3" d="M13.2734 13.8242H17.0097V17.5605H13.2734V13.8242Z" fill="#2D3A4A"/>
<path id="Vector_4" d="M13.2734 18.3076H17.0097V19.8021H13.2734V18.3076Z" fill="#2D3A4A"/>
<path id="Vector_5" d="M16.2629 10.8353C16.6749 10.8353 17.0101 10.5001 17.0101 10.0881C17.0101 9.67604 16.6749 9.34082 16.2629 9.34082C15.8508 9.34082 15.5156 9.67604 15.5156 10.0881C15.5156 10.5001 15.8508 10.8353 16.2629 10.8353Z" fill="#2D3A4A"/>
<path id="Vector_6" d="M18.5051 10.8353C18.9171 10.8353 19.2523 10.5001 19.2523 10.0881C19.2523 9.67604 18.9171 9.34082 18.5051 9.34082C18.093 9.34082 17.7578 9.67604 17.7578 10.0881C17.7578 10.5001 18.093 10.8353 18.5051 10.8353Z" fill="#2D3A4A"/>
<path id="Vector_7" d="M31.5832 23.912C31.9959 23.912 32.3304 23.5774 32.3304 23.1647C32.3304 22.752 31.9959 22.4175 31.5832 22.4175C31.1705 22.4175 30.8359 22.752 30.8359 23.1647C30.8359 23.5774 31.1705 23.912 31.5832 23.912Z" fill="#2D3A4A"/>
<path id="Vector_8" d="M33.8215 3.7362C34.2342 3.7362 34.5687 3.40165 34.5687 2.98895C34.5687 2.57626 34.2342 2.2417 33.8215 2.2417C33.4088 2.2417 33.0742 2.57626 33.0742 2.98895C33.0742 3.40165 33.4088 3.7362 33.8215 3.7362Z" fill="#2D3A4A"/>
<path id="Vector_9" d="M7.66913 1.49451C8.08182 1.49451 8.41638 1.15995 8.41638 0.747253C8.41638 0.334556 8.08182 0 7.66913 0C7.25643 0 6.92188 0.334556 6.92188 0.747253C6.92188 1.15995 7.25643 1.49451 7.66913 1.49451Z" fill="#2D3A4A"/>
<path id="Vector_10" d="M2.43866 6.72546C2.85136 6.72546 3.18591 6.39091 3.18591 5.97821C3.18591 5.56551 2.85136 5.23096 2.43866 5.23096C2.02596 5.23096 1.69141 5.56551 1.69141 5.97821C1.69141 6.39091 2.02596 6.72546 2.43866 6.72546Z" fill="#2D3A4A"/>
<path id="Vector_11" d="M24.1105 32.8793C24.5232 32.8793 24.8578 32.5447 24.8578 32.132C24.8578 31.7193 24.5232 31.3848 24.1105 31.3848C23.6978 31.3848 23.3633 31.7193 23.3633 32.132C23.3633 32.5447 23.6978 32.8793 24.1105 32.8793Z" fill="#2D3A4A"/>
<path id="Vector_12" d="M9.16522 32.8793C9.57792 32.8793 9.91247 32.5447 9.91247 32.132C9.91247 31.7193 9.57792 31.3848 9.16522 31.3848C8.75253 31.3848 8.41797 31.7193 8.41797 32.132C8.41797 32.5447 8.75253 32.8793 9.16522 32.8793Z" fill="#2D3A4A"/>
<path id="Vector_13" d="M4.68085 24.6595C5.09354 24.6595 5.4281 24.325 5.4281 23.9123C5.4281 23.4996 5.09354 23.165 4.68085 23.165C4.26815 23.165 3.93359 23.4996 3.93359 23.9123C3.93359 24.325 4.26815 24.6595 4.68085 24.6595Z" fill="#2D3A4A"/>
<path id="Vector_14" d="M31.1691 14.6969C31.1691 7.0954 24.9849 0.911133 17.3834 0.911133C9.78192 0.911133 3.59766 7.0954 3.59766 14.6969C3.59766 17.378 4.32683 19.6841 5.89247 21.9544C7.27414 23.958 9.13308 25.6797 11.1011 27.5024C13.1511 29.4011 15.2709 31.3644 17.0815 33.8465C17.1519 33.943 17.2641 34 17.3834 34C17.5028 34 17.615 33.943 17.6852 33.8465C19.4959 31.3643 21.6158 29.401 23.6657 27.5024C25.6338 25.6796 27.4927 23.9579 28.8743 21.9544C30.44 19.6841 31.1691 17.378 31.1691 14.6969ZM17.3834 4.76733C22.8586 4.76733 27.313 9.2217 27.313 14.6969C27.313 20.1721 22.8586 24.6265 17.3834 24.6265C11.9082 24.6265 7.45393 20.1722 7.45393 14.697C7.45393 9.22178 11.9082 4.76733 17.3834 4.76733Z" fill="#2D3A4A"/>
<path id="Vector_15" d="M4.68063 27.2749C3.65054 27.2749 2.8125 28.1129 2.8125 29.143C2.8125 30.1731 3.65054 31.0112 4.68063 31.0112C5.71072 31.0112 6.54876 30.1731 6.54876 29.143C6.54876 28.1129 5.71072 27.2749 4.68063 27.2749Z" fill="#2D3A4A"/>
<path id="Vector_16" d="M30.4605 27.2749C29.2244 27.2749 28.2188 28.2806 28.2188 29.5167C28.2188 30.7528 29.2244 31.7584 30.4605 31.7584C31.6966 31.7584 32.7023 30.7528 32.7023 29.5167C32.7023 28.2806 31.6966 27.2749 30.4605 27.2749Z" fill="#2D3A4A"/>
<path id="Vector_17" d="M29.3385 3.36249H31.5802C31.7866 3.36249 31.9539 3.19518 31.9539 2.98886C31.9539 2.78254 31.7866 2.61523 31.5802 2.61523H29.3385C29.1321 2.61523 28.9648 2.78254 28.9648 2.98886C28.9648 3.19518 29.1321 3.36249 29.3385 3.36249Z" fill="#2D3A4A"/>
<path id="Vector_18" d="M2.43844 23.5386H0.943939C0.737622 23.5386 0.570312 23.7058 0.570312 23.9122C0.570312 24.1186 0.737622 24.2858 0.943939 24.2858H2.43844C2.64476 24.2858 2.81207 24.1186 2.81207 23.9122C2.81207 23.7058 2.64476 23.5386 2.43844 23.5386Z" fill="#2D3A4A"/>
</g>
</svg>
