<svg width="33" height="32" viewBox="0 0 33 32" fill="none" xmlns="http://www.w3.org/2000/svg">
<g id="Group">
<path id="Vector" d="M21.4238 8.52351C23.6046 8.52351 25.3789 6.72385 25.3789 4.51175C25.3789 2.29966 23.6046 0.5 21.4238 0.5C19.243 0.5 17.4688 2.29966 17.4688 4.51175C17.4688 6.7238 19.243 8.52351 21.4238 8.52351ZM20.4895 4.15313C20.1974 3.92091 20.0644 3.51729 20.1418 3.09997C20.2264 2.64463 20.5388 2.28231 20.9569 2.15463C20.9844 2.14619 21.0109 2.14083 21.0378 2.13395V1.54595H21.7159V2.10887C22.136 2.1889 22.3928 2.42184 22.4086 2.43658L22.6579 2.66971L22.1983 3.17545L21.9515 2.94451C21.94 2.9346 21.8562 2.86495 21.7159 2.81673V4.01535C21.7839 4.0411 21.852 4.06622 21.9189 4.09012C22.5498 4.31642 22.8875 4.88621 22.7788 5.54149C22.6949 6.04771 22.3119 6.55976 21.716 6.70649V7.32835H21.0379V6.73968C20.7434 6.71607 20.5023 6.63931 20.1588 6.4114L19.8751 6.22332L20.2462 5.6476L20.53 5.83582C20.7333 5.97081 20.8623 6.02585 21.0378 6.04771V4.47605C20.8055 4.36862 20.6306 4.2655 20.4895 4.15313Z" fill="#919EAB"/>
<path id="Vector_2" d="M22.109 5.42732C22.1284 5.31002 22.155 4.92001 21.7148 4.74805V5.97962C21.94 5.86284 22.0738 5.63934 22.109 5.42732Z" fill="#919EAB"/>
<path id="Vector_3" d="M20.8069 3.22736C20.7768 3.38884 20.816 3.5398 20.9065 3.61187C20.9449 3.6424 20.9895 3.67194 21.0365 3.70129V2.86816C20.9031 2.95535 20.8302 3.10138 20.8069 3.22736Z" fill="#919EAB"/>
<path id="Vector_4" d="M31.1333 4.51149C31.7281 4.51149 32.212 4.02063 32.212 3.41737C32.212 2.8141 31.728 2.32324 31.1333 2.32324C30.5385 2.32324 30.0547 2.81405 30.0547 3.41737C30.0547 4.02068 30.5385 4.51149 31.1333 4.51149Z" fill="#919EAB"/>
<path id="Vector_5" d="M6.32105 6.6999C7.11407 6.6999 7.75924 6.04538 7.75924 5.24109C7.75924 4.43675 7.11407 3.78223 6.32105 3.78223C5.52803 3.78223 4.88281 4.43675 4.88281 5.24109C4.88286 6.04543 5.52803 6.6999 6.32105 6.6999Z" fill="#919EAB"/>
<path id="Vector_6" d="M5.84354 12.5353H30.4128V11.6843C30.4128 10.3436 29.3376 9.25293 28.0158 9.25293H3.32674C2.00493 9.25293 0.929688 10.3436 0.929688 11.6843V25.0569C0.929688 26.1711 1.69307 27.1365 2.72742 27.4097V15.696C2.72742 13.9532 4.12527 12.5353 5.84354 12.5353Z" fill="#919EAB"/>
<path id="Vector_7" d="M3.44531 17.6411H32.9285V20.5588H3.44531V17.6411Z" fill="#919EAB"/>
<path id="Vector_8" d="M30.5314 13.2646H5.84236C4.5206 13.2646 3.44531 14.3554 3.44531 15.696V16.9117H32.9285V15.696C32.9285 14.3554 31.8532 13.2646 30.5314 13.2646Z" fill="#919EAB"/>
<path id="Vector_9" d="M3.44531 29.0686C3.44531 30.4092 4.52056 31.4999 5.84236 31.4999H30.5316C31.8532 31.4999 32.9285 30.4092 32.9285 29.0685V21.2881H3.44531V29.0686ZM12.362 27.8932C12.3064 28.0906 12.1036 28.2049 11.9089 28.1485C11.7144 28.0921 11.6016 27.8863 11.6572 27.689C11.7128 27.4916 11.9157 27.3773 12.1103 27.4337C12.3049 27.49 12.4176 27.6958 12.362 27.8932ZM5.96216 23.8411H16.0296C16.2282 23.8411 16.3891 24.0043 16.3891 24.2058C16.3891 24.4072 16.2282 24.5705 16.0296 24.5705H5.96216C5.76351 24.5705 5.60262 24.4072 5.60262 24.2058C5.60262 24.0043 5.76351 23.8411 5.96216 23.8411ZM5.96216 25.6646H16.0296C16.2282 25.6646 16.3891 25.8278 16.3891 26.0293C16.3891 26.2308 16.2282 26.394 16.0296 26.394H5.96216C5.76351 26.394 5.60262 26.2308 5.60262 26.0293C5.60258 25.8278 5.76351 25.6646 5.96216 25.6646ZM5.96216 27.4881H10.9959C11.1945 27.4881 11.3554 27.6514 11.3554 27.8528C11.3554 28.0543 11.1945 28.2175 10.9959 28.2175H5.96216C5.76351 28.2175 5.60262 28.0543 5.60262 27.8528C5.60262 27.6514 5.76351 27.4881 5.96216 27.4881Z" fill="#919EAB"/>
<path id="Vector_10" d="M2.90649 3.05257C3.20434 3.05257 3.4458 2.80765 3.4458 2.50553C3.4458 2.20341 3.20434 1.9585 2.90649 1.9585C2.60864 1.9585 2.36719 2.20341 2.36719 2.50553C2.36719 2.80765 2.60864 3.05257 2.90649 3.05257Z" fill="#919EAB"/>
<path id="Vector_11" d="M11.176 2.32357C11.4739 2.32357 11.7153 2.07865 11.7153 1.77653C11.7153 1.47441 11.4739 1.22949 11.176 1.22949C10.8782 1.22949 10.6367 1.47441 10.6367 1.77653C10.6367 2.07865 10.8782 2.32357 11.176 2.32357Z" fill="#919EAB"/>
<path id="Vector_12" d="M15.1331 6.69964C15.431 6.69964 15.6725 6.4547 15.6725 6.15255C15.6725 5.85041 15.431 5.60547 15.1331 5.60547C14.8352 5.60547 14.5938 5.85041 14.5938 6.15255C14.5938 6.4547 14.8352 6.69964 15.1331 6.69964Z" fill="#919EAB"/>
<path id="Vector_13" d="M27.3558 1.95843C27.6536 1.95843 27.8951 1.71349 27.8951 1.41134C27.8951 1.1092 27.6536 0.864258 27.3558 0.864258C27.0579 0.864258 26.8164 1.1092 26.8164 1.41134C26.8164 1.71349 27.0579 1.95843 27.3558 1.95843Z" fill="#919EAB"/>
<path id="Vector_14" d="M32.3909 8.8886C32.6888 8.8886 32.9303 8.64367 32.9303 8.34152C32.9303 8.03937 32.6888 7.79443 32.3909 7.79443C32.093 7.79443 31.8516 8.03937 31.8516 8.34152C31.8516 8.64367 32.093 8.8886 32.3909 8.8886Z" fill="#919EAB"/>
</g>
</svg>
