<svg width="35" height="34" viewBox="0 0 35 34" fill="none" xmlns="http://www.w3.org/2000/svg">
<g id="Group">
<path id="Vector" d="M18.1172 17.5605H19.9853C20.1917 17.5605 20.3589 17.7277 20.3589 17.9341C20.3589 18.1405 20.1917 18.3077 19.9853 18.3077H18.1172V19.8022H21.8535V13.8242H18.1172V17.5605Z" fill="#919EAB"/>
<path id="Vector_2" d="M22.2274 13.077H22.601V11.5825H12.8867V13.077H13.2603H22.2274Z" fill="#919EAB"/>
<path id="Vector_3" d="M13.6328 13.8242H17.3691V17.5605H13.6328V13.8242Z" fill="#919EAB"/>
<path id="Vector_4" d="M13.6328 18.3076H17.3691V19.8021H13.6328V18.3076Z" fill="#919EAB"/>
<path id="Vector_5" d="M16.6223 10.8353C17.0343 10.8353 17.3695 10.5001 17.3695 10.0881C17.3695 9.67604 17.0343 9.34082 16.6223 9.34082C16.2102 9.34082 15.875 9.67604 15.875 10.0881C15.875 10.5001 16.2102 10.8353 16.6223 10.8353Z" fill="#919EAB"/>
<path id="Vector_6" d="M18.8644 10.8353C19.2765 10.8353 19.6117 10.5001 19.6117 10.0881C19.6117 9.67604 19.2765 9.34082 18.8644 9.34082C18.4524 9.34082 18.1172 9.67604 18.1172 10.0881C18.1172 10.5001 18.4524 10.8353 18.8644 10.8353Z" fill="#919EAB"/>
<path id="Vector_7" d="M31.9426 23.912C32.3553 23.912 32.6898 23.5774 32.6898 23.1647C32.6898 22.752 32.3553 22.4175 31.9426 22.4175C31.5299 22.4175 31.1953 22.752 31.1953 23.1647C31.1953 23.5774 31.5299 23.912 31.9426 23.912Z" fill="#919EAB"/>
<path id="Vector_8" d="M34.1808 3.7362C34.5935 3.7362 34.9281 3.40165 34.9281 2.98895C34.9281 2.57626 34.5935 2.2417 34.1808 2.2417C33.7682 2.2417 33.4336 2.57626 33.4336 2.98895C33.4336 3.40165 33.7682 3.7362 34.1808 3.7362Z" fill="#919EAB"/>
<path id="Vector_9" d="M8.0285 1.49451C8.4412 1.49451 8.77576 1.15995 8.77576 0.747253C8.77576 0.334556 8.4412 0 8.0285 0C7.61581 0 7.28125 0.334556 7.28125 0.747253C7.28125 1.15995 7.61581 1.49451 8.0285 1.49451Z" fill="#919EAB"/>
<path id="Vector_10" d="M2.79803 6.72546C3.21073 6.72546 3.54529 6.39091 3.54529 5.97821C3.54529 5.56551 3.21073 5.23096 2.79803 5.23096C2.38534 5.23096 2.05078 5.56551 2.05078 5.97821C2.05078 6.39091 2.38534 6.72546 2.79803 6.72546Z" fill="#919EAB"/>
<path id="Vector_11" d="M24.4699 32.8793C24.8826 32.8793 25.2172 32.5447 25.2172 32.132C25.2172 31.7193 24.8826 31.3848 24.4699 31.3848C24.0572 31.3848 23.7227 31.7193 23.7227 32.132C23.7227 32.5447 24.0572 32.8793 24.4699 32.8793Z" fill="#919EAB"/>
<path id="Vector_12" d="M9.5246 32.8793C9.93729 32.8793 10.2718 32.5447 10.2718 32.132C10.2718 31.7193 9.93729 31.3848 9.5246 31.3848C9.1119 31.3848 8.77734 31.7193 8.77734 32.132C8.77734 32.5447 9.1119 32.8793 9.5246 32.8793Z" fill="#919EAB"/>
<path id="Vector_13" d="M5.04022 24.6595C5.45292 24.6595 5.78747 24.325 5.78747 23.9123C5.78747 23.4996 5.45292 23.165 5.04022 23.165C4.62753 23.165 4.29297 23.4996 4.29297 23.9123C4.29297 24.325 4.62753 24.6595 5.04022 24.6595Z" fill="#919EAB"/>
<path id="Vector_14" d="M31.5285 14.6969C31.5285 7.0954 25.3442 0.911133 17.7428 0.911133C10.1413 0.911133 3.95703 7.0954 3.95703 14.6969C3.95703 17.378 4.6862 19.6841 6.25184 21.9544C7.63351 23.958 9.49246 25.6797 11.4605 27.5024C13.5105 29.4011 15.6302 31.3644 17.4409 33.8465C17.5112 33.943 17.6235 34 17.7428 34C17.8621 34 17.9744 33.943 18.0446 33.8465C19.8553 31.3643 21.9752 29.401 24.025 27.5024C25.9931 25.6796 27.8521 23.9579 29.2337 21.9544C30.7994 19.6841 31.5285 17.378 31.5285 14.6969ZM17.7428 4.76733C23.218 4.76733 27.6724 9.2217 27.6724 14.6969C27.6724 20.1721 23.218 24.6265 17.7428 24.6265C12.2676 24.6265 7.8133 20.1722 7.8133 14.697C7.8133 9.22178 12.2676 4.76733 17.7428 4.76733Z" fill="#919EAB"/>
<path id="Vector_15" d="M5.04001 27.2749C4.00992 27.2749 3.17188 28.1129 3.17188 29.143C3.17188 30.1731 4.00992 31.0112 5.04001 31.0112C6.07009 31.0112 6.90814 30.1731 6.90814 29.143C6.90814 28.1129 6.07009 27.2749 5.04001 27.2749Z" fill="#919EAB"/>
<path id="Vector_16" d="M30.8199 27.2749C29.5838 27.2749 28.5781 28.2806 28.5781 29.5167C28.5781 30.7528 29.5838 31.7584 30.8199 31.7584C32.056 31.7584 33.0616 30.7528 33.0616 29.5167C33.0616 28.2806 32.056 27.2749 30.8199 27.2749Z" fill="#919EAB"/>
<path id="Vector_17" d="M29.6978 3.36249H31.9396C32.146 3.36249 32.3132 3.19518 32.3132 2.98886C32.3132 2.78254 32.146 2.61523 31.9396 2.61523H29.6978C29.4915 2.61523 29.3242 2.78254 29.3242 2.98886C29.3242 3.19518 29.4915 3.36249 29.6978 3.36249Z" fill="#919EAB"/>
<path id="Vector_18" d="M2.79782 23.5386H1.30331C1.097 23.5386 0.929688 23.7058 0.929688 23.9122C0.929688 24.1186 1.097 24.2858 1.30331 24.2858H2.79782C3.00414 24.2858 3.17145 24.1186 3.17145 23.9122C3.17145 23.7058 3.00414 23.5386 2.79782 23.5386Z" fill="#919EAB"/>
</g>
</svg>
