<svg width="32" height="32" viewBox="0 0 32 32" fill="none" xmlns="http://www.w3.org/2000/svg">
<g id="Group 1000002764">
<path id="Vector" d="M14.0594 7.02471L14.2268 7.19214V3.42871H13.084V7.19214L13.2514 7.02471C13.3586 6.91758 13.5039 6.8574 13.6554 6.8574C13.8069 6.8574 13.9523 6.91758 14.0594 7.02471Z" fill="#919EAB"/>
<path id="Vector_2" d="M6.79911 25.1431C7.43029 25.1431 7.94196 24.6315 7.94196 24.0003C7.94196 23.3691 7.43029 22.8574 6.79911 22.8574C6.16792 22.8574 5.65625 23.3691 5.65625 24.0003C5.65625 24.6315 6.16792 25.1431 6.79911 25.1431Z" fill="#919EAB"/>
<path id="Vector_3" d="M6.79911 19.4283C7.43029 19.4283 7.94196 18.9166 7.94196 18.2854C7.94196 17.6543 7.43029 17.1426 6.79911 17.1426C6.16792 17.1426 5.65625 17.6543 5.65625 18.2854C5.65625 18.9166 6.16792 19.4283 6.79911 19.4283Z" fill="#919EAB"/>
<path id="Vector_4" d="M9.54308 12.5716H17.7717C17.8929 12.5716 18.0092 12.5234 18.0949 12.4377C18.1806 12.3519 18.2288 12.2357 18.2288 12.1144V3.88585C18.2288 3.76461 18.1806 3.64834 18.0949 3.56261C18.0092 3.47687 17.8929 3.42871 17.7717 3.42871H15.3717V8.57157C15.3716 8.68457 15.3381 8.79502 15.2753 8.88897C15.2125 8.98292 15.1233 9.05614 15.0189 9.09938C14.9145 9.14262 14.7996 9.15394 14.6888 9.1319C14.5779 9.10986 14.4761 9.05546 14.3962 8.97557L13.6574 8.23671L12.9185 8.97557C12.8386 9.05546 12.7368 9.10986 12.626 9.1319C12.5151 9.15394 12.4002 9.14262 12.2958 9.09938C12.1914 9.05614 12.1022 8.98292 12.0394 8.88897C11.9766 8.79502 11.9431 8.68457 11.9431 8.57157V3.42871H9.54308C9.42184 3.42871 9.30556 3.47687 9.21983 3.56261C9.1341 3.64834 9.08594 3.76461 9.08594 3.88585V12.1144C9.08594 12.1745 9.09776 12.2339 9.12074 12.2894C9.14371 12.3448 9.17738 12.3952 9.21983 12.4377C9.26228 12.4801 9.31268 12.5138 9.36814 12.5368C9.4236 12.5597 9.48305 12.5716 9.54308 12.5716Z" fill="#919EAB"/>
<path id="Vector_5" d="M25.0859 0V2.28571H27.8859C27.7534 1.64076 27.4025 1.06123 26.8925 0.644854C26.3824 0.228477 25.7444 0.000724135 25.0859 0Z" fill="#919EAB"/>
<path id="Vector_6" d="M3.37109 1.71429V28.5714H19.3711C19.5226 28.5714 19.668 28.6316 19.7752 28.7388C19.8823 28.846 19.9425 28.9913 19.9425 29.1429C19.9425 30.5874 22.2328 32 23.9425 32V0H5.08538C4.63072 0 4.19469 0.180612 3.8732 0.502103C3.55171 0.823594 3.37109 1.25963 3.37109 1.71429ZM6.79967 26.2857C6.34759 26.2857 5.90567 26.1517 5.52979 25.9005C5.15391 25.6493 4.86094 25.2924 4.68794 24.8747C4.51494 24.457 4.46968 23.9975 4.55787 23.5541C4.64606 23.1107 4.86376 22.7034 5.18342 22.3838C5.50308 22.0641 5.91036 21.8464 6.35374 21.7582C6.79713 21.67 7.25671 21.7153 7.67437 21.8883C8.09203 22.0613 8.44901 22.3542 8.70017 22.7301C8.95132 23.106 9.08538 23.5479 9.08538 24C9.08538 24.6062 8.84456 25.1876 8.41591 25.6162C7.98725 26.0449 7.40587 26.2857 6.79967 26.2857ZM11.3711 24.5714H10.2282V23.4286H11.3711V24.5714ZM11.3711 18.8571H10.2282V17.7143H11.3711V18.8571ZM22.7997 24.5714H12.514V23.4286H22.7997V24.5714ZM22.7997 18.8571H12.514V17.7143H22.7997V18.8571ZM7.94252 3.88571C7.94252 3.46137 8.11109 3.0544 8.41115 2.75434C8.71121 2.45429 9.11818 2.28571 9.54252 2.28571H17.7711C18.1954 2.28571 18.6024 2.45429 18.9025 2.75434C19.2025 3.0544 19.3711 3.46137 19.3711 3.88571V12.1143C19.3711 12.5386 19.2025 12.9456 18.9025 13.2457C18.6024 13.5457 18.1954 13.7143 17.7711 13.7143H9.54252C9.11818 13.7143 8.71121 13.5457 8.41115 13.2457C8.11109 12.9456 7.94252 12.5386 7.94252 12.1143V3.88571ZM6.79967 16C7.25174 16 7.69366 16.1341 8.06954 16.3852C8.44542 16.6364 8.73839 16.9933 8.91139 17.411C9.08439 17.8287 9.12966 18.2882 9.04146 18.7316C8.95327 19.175 8.73557 19.5823 8.41591 19.902C8.09625 20.2216 7.68897 20.4393 7.24559 20.5275C6.8022 20.6157 6.34262 20.5704 5.92496 20.3974C5.5073 20.2244 5.15032 19.9315 4.89916 19.5556C4.64801 19.1797 4.51395 18.7378 4.51395 18.2857C4.51395 17.6795 4.75477 17.0981 5.18342 16.6695C5.61208 16.2408 6.19346 16 6.79967 16Z" fill="#919EAB"/>
<path id="Vector_7" d="M18.8629 29.7139H0C0.132527 30.3588 0.483405 30.9384 0.993467 31.3547C1.50353 31.7711 2.14157 31.9989 2.8 31.9996H20.576C19.7414 31.4764 19.1308 30.6618 18.8629 29.7139Z" fill="#919EAB"/>
<path id="Vector_8" d="M29.6581 28.0003C30.9126 28.0003 31.9296 27.7444 31.9296 27.4289C31.9296 27.1133 30.9126 26.8574 29.6581 26.8574C28.4037 26.8574 27.3867 27.1133 27.3867 27.4289C27.3867 27.7444 28.4037 28.0003 29.6581 28.0003Z" fill="#919EAB"/>
<path id="Vector_9" d="M30.2288 21.579V6.2853C30.2288 6.13374 30.1686 5.9884 30.0614 5.88123C29.9543 5.77407 29.8089 5.71387 29.6574 5.71387C29.5058 5.71387 29.3605 5.77407 29.2533 5.88123C29.1461 5.9884 29.0859 6.13374 29.0859 6.2853V21.579L29.6574 22.7219L30.2288 21.579Z" fill="#919EAB"/>
<path id="Vector_10" d="M29.0859 29.7144C29.0859 29.866 29.0257 30.0113 28.9186 30.1185C28.8114 30.2256 28.6661 30.2858 28.5145 30.2858H25.0859V31.4287H28.5145C28.9687 31.4273 29.404 31.2463 29.7252 30.9251C30.0464 30.6039 30.2274 30.1686 30.2288 29.7144V29.1201H29.0859V29.7144Z" fill="#919EAB"/>
</g>
</svg>
