<svg width="20" height="20" viewBox="0 0 20 20" fill="none" xmlns="http://www.w3.org/2000/svg">
<g id="vuesax/bold/trash">
<g id="trash">
<path id="Vector" d="M17.2561 4.58341C15.9681 4.45541 14.6801 4.35941 13.3841 4.28741V4.27941L13.2081 3.23941C13.0881 2.50341 12.9121 1.39941 11.0401 1.39941H8.94413C7.08013 1.39941 6.90413 2.45541 6.77613 3.23141L6.60813 4.25541C5.86413 4.30341 5.12013 4.35141 4.37613 4.42341L2.74413 4.58341C2.40813 4.61541 2.16813 4.91141 2.20013 5.23941C2.23213 5.56741 2.52013 5.80741 2.85613 5.77541L4.48813 5.61541C8.68013 5.19941 12.9041 5.35941 17.1441 5.78341C17.1681 5.78341 17.1841 5.78341 17.2081 5.78341C17.5121 5.78341 17.7761 5.55141 17.8081 5.23941C17.8321 4.91141 17.5921 4.61541 17.2561 4.58341Z" fill="#B1628C"/>
<path id="Vector_2" d="M15.785 6.91161C15.593 6.71161 15.329 6.59961 15.057 6.59961H4.94497C4.67297 6.59961 4.40097 6.71161 4.21697 6.91161C4.03297 7.11161 3.92897 7.38361 3.94497 7.66361L4.44097 15.8716C4.52897 17.0876 4.64097 18.6076 7.43297 18.6076H12.569C15.361 18.6076 15.473 17.0956 15.561 15.8716L16.057 7.67161C16.073 7.38361 15.969 7.11161 15.785 6.91161ZM11.329 14.5996H8.66497C8.33697 14.5996 8.06497 14.3276 8.06497 13.9996C8.06497 13.6716 8.33697 13.3996 8.66497 13.3996H11.329C11.657 13.3996 11.929 13.6716 11.929 13.9996C11.929 14.3276 11.657 14.5996 11.329 14.5996ZM12.001 11.3996H8.00097C7.67297 11.3996 7.40097 11.1276 7.40097 10.7996C7.40097 10.4716 7.67297 10.1996 8.00097 10.1996H12.001C12.329 10.1996 12.601 10.4716 12.601 10.7996C12.601 11.1276 12.329 11.3996 12.001 11.3996Z" fill="#B1628C"/>
</g>
</g>
</svg>
