<svg width="22" height="24" viewBox="0 0 22 24" fill="none" xmlns="http://www.w3.org/2000/svg">
<g id="Group">
<g id="Group_2">
<g id="Icons">
<path id="Vector" fill-rule="evenodd" clip-rule="evenodd" d="M15.1987 10.5813L17.6431 9.50501C17.7649 9.45137 17.9079 9.50694 17.9616 9.62873C18.0152 9.75099 17.9597 9.89356 17.8379 9.94722L15.2422 11.0907L11.4595 23.2278L21.3953 8.38089C18.7906 9.51233 18.7795 9.60131 18.6135 9.47491C18.2717 9.10514 18.8402 8.99625 19.0965 8.86491C19.8207 8.54609 21.1853 7.94529 21.186 7.94497L19.0625 6.22594L14.4882 8.14602L15.1987 10.5813ZM6.72965 11.0907L10.5123 23.2278L0.576522 8.38089L6.72965 11.0907ZM10.9859 23.1234L7.25644 11.1554H14.7154L10.9859 23.1234ZM14.7217 10.6721H7.25014L7.95719 8.24799H14.0146L14.7217 10.6721ZM7.48357 8.14603L6.77315 10.5813L0.785766 7.94498L2.90978 6.22595L7.48357 8.14603ZM3.09344 2.70621C3.10504 2.73473 3.11133 2.76516 3.11133 2.79755V5.78663L7.82429 7.7647H10.9859H14.1475L18.8605 5.78663V2.79755C18.8605 2.76516 18.8668 2.73473 18.8784 2.70621L14.1959 0.798691L10.9859 0.738281L7.77596 0.798691L3.09344 2.70621ZM21.6456 4.85681V7.69559L19.3438 5.83158V2.99327L21.6456 4.85681ZM2.62805 2.99327V5.83158L0.326172 7.69559V4.85681L2.62805 2.99327ZM9.23257 5.23087C8.59207 5.89264 8.31356 6.02156 8.53133 6.27379C8.78419 6.45702 8.87067 6.25815 9.04348 6.10333C9.22049 5.92631 9.48006 5.66675 9.55426 5.59254C9.80151 5.37185 9.49535 5.00489 9.23257 5.23087ZM13.0988 3.15227L11.0202 5.23087C10.926 5.32511 10.926 5.47832 11.0202 5.57255C11.1145 5.66678 11.2677 5.66679 11.3619 5.57255L13.4405 3.49395C13.5347 3.39971 13.5347 3.24651 13.4405 3.15227C13.3463 3.05804 13.1931 3.05803 13.0988 3.15227ZM12.2047 2.2582L9.90916 4.55427C9.81492 4.64851 9.81492 4.80172 9.90916 4.89595C10.0034 4.99018 10.1566 4.99019 10.2508 4.89595L12.5464 2.59988C12.6407 2.50564 12.6407 2.35243 12.5464 2.2582C12.4522 2.16397 12.299 2.16397 12.2047 2.2582Z" fill="#919EAB"/>
</g>
</g>
</g>
</svg>
