<svg width="24" height="24" viewBox="0 0 24 24" fill="none" xmlns="http://www.w3.org/2000/svg">
<g id="vuesax/bold/star">
<g id="star">
<path id="Vector" d="M15.3895 5.21028L16.7995 8.03028C16.9895 8.42028 17.4995 8.79028 17.9295 8.87028L20.4795 9.29028C22.1095 9.56028 22.4895 10.7403 21.3195 11.9203L19.3295 13.9103C18.9995 14.2403 18.8095 14.8903 18.9195 15.3603L19.4895 17.8203C19.9395 19.7603 18.8995 20.5203 17.1895 19.5003L14.7995 18.0803C14.3695 17.8203 13.6495 17.8203 13.2195 18.0803L10.8295 19.5003C9.11945 20.5103 8.07945 19.7603 8.52945 17.8203L9.09945 15.3603C9.18945 14.8803 8.99945 14.2303 8.66945 13.9003L6.67945 11.9103C5.50945 10.7403 5.88945 9.56028 7.51945 9.28028L10.0695 8.86028C10.4995 8.79028 11.0095 8.41028 11.1995 8.02028L12.6095 5.20028C13.3795 3.68028 14.6195 3.68028 15.3895 5.21028Z" fill="#919EAB"/>
<path id="Vector_2" d="M8 5.75H2C1.59 5.75 1.25 5.41 1.25 5C1.25 4.59 1.59 4.25 2 4.25H8C8.41 4.25 8.75 4.59 8.75 5C8.75 5.41 8.41 5.75 8 5.75Z" fill="#919EAB"/>
<path id="Vector_3" d="M5 19.75H2C1.59 19.75 1.25 19.41 1.25 19C1.25 18.59 1.59 18.25 2 18.25H5C5.41 18.25 5.75 18.59 5.75 19C5.75 19.41 5.41 19.75 5 19.75Z" fill="#919EAB"/>
<path id="Vector_4" d="M3 12.75H2C1.59 12.75 1.25 12.41 1.25 12C1.25 11.59 1.59 11.25 2 11.25H3C3.41 11.25 3.75 11.59 3.75 12C3.75 12.41 3.41 12.75 3 12.75Z" fill="#919EAB"/>
</g>
</g>
</svg>
