<svg width="24" height="24" viewBox="0 0 24 24" fill="none" xmlns="http://www.w3.org/2000/svg">
<g id="hand receive shop bag">
<path id="Vector" d="M20.8687 5.21084H18.26V3.12651C18.26 2.29731 17.9302 1.50207 17.3432 0.915733C16.7561 0.329399 15.9599 0 15.1297 0C14.2995 0 13.5033 0.329399 12.9162 0.915733C12.3292 1.50207 11.9994 2.29731 11.9994 3.12651V6.92C12.1983 7.03471 12.3537 7.21177 12.4416 7.42373C12.5295 7.63568 12.545 7.87068 12.4855 8.09228C12.4261 8.31388 12.2951 8.50969 12.1128 8.64935C11.9306 8.78901 11.7073 8.86471 11.4776 8.86471C11.2479 8.86471 11.0246 8.78901 10.8424 8.64935C10.6602 8.50969 10.5292 8.31388 10.4697 8.09228C10.4103 7.87068 10.4257 7.63568 10.5136 7.42373C10.6015 7.21177 10.757 7.03471 10.9559 6.92V5.21084H8.34728L7.42383 13.2616C7.99643 13.3587 8.55293 13.5341 9.07769 13.7827C15.2601 16.6747 14.9314 16.4663 15.3019 16.8258C15.6617 17.1594 15.8956 17.6065 15.9645 18.0921C21.7034 15.1688 21.3956 15.2886 21.813 15.1896L20.8687 5.21084ZM16.6949 8.85844C16.4672 8.85611 16.2464 8.77945 16.0664 8.64014C15.8864 8.50083 15.757 8.30652 15.6978 8.08687C15.6387 7.86721 15.6532 7.63427 15.739 7.42359C15.8248 7.21291 15.9773 7.03605 16.1731 6.92V5.21084H13.0428V3.12651C13.0428 2.57371 13.2627 2.04355 13.654 1.65266C14.0454 1.26177 14.5762 1.04217 15.1297 1.04217C15.6832 1.04217 16.214 1.26177 16.6054 1.65266C16.9967 2.04355 17.2166 2.57371 17.2166 3.12651V6.92C17.4125 7.03605 17.5649 7.21291 17.6507 7.42359C17.7366 7.63427 17.751 7.86721 17.6919 8.08687C17.6328 8.30652 17.5033 8.50083 17.3233 8.64014C17.1433 8.77945 16.9226 8.85611 16.6949 8.85844Z" fill="#919EAB"/>
<path id="Vector_2" d="M0 13.5479H3.13035V22.4063H0V13.5479Z" fill="#919EAB"/>
<path id="Vector_3" d="M23.8272 17.0034C23.6377 16.6397 23.3128 16.3649 22.9225 16.2382C22.5322 16.1115 22.1076 16.143 21.7403 16.326L15.8605 19.317C15.1144 20.479 13.8988 21.2294 12.6727 20.6405L8.55631 18.7073C8.44165 18.6422 8.35595 18.5361 8.31646 18.4103C8.27698 18.2846 8.28665 18.1486 8.34352 18.0297C8.40039 17.9109 8.50024 17.8179 8.62297 17.7696C8.74571 17.7213 8.88221 17.7212 9.005 17.7694C13.4866 19.8537 13.2153 19.7912 13.5649 19.8016C14.8014 19.8589 15.5839 17.9413 14.2327 17.3421C6.86593 13.8873 7.90937 13.9967 4.17383 14.4605V21.3649C4.74162 21.3208 5.31151 21.4175 5.83291 21.6462C13.4292 25.0906 11.2901 25.1636 23.1489 19.1086C23.3319 19.0149 23.4946 18.8861 23.6277 18.7295C23.7609 18.573 23.8618 18.3918 23.9248 18.1963C23.9878 18.0008 24.0116 17.7948 23.9948 17.5901C23.9781 17.3855 23.9211 17.1861 23.8272 17.0034Z" fill="#919EAB"/>
</g>
</svg>
