<svg xmlns="http://www.w3.org/2000/svg" width="369.38" height="54.71" viewBox="0 0 369.38 54.71">
  <g id="_10087883.547f820c5387d" data-name="10087883.547f820c5387d" transform="translate(-14.78 -131.39)">
    <g id="Group_3777" data-name="Group 3777">
      <path id="Path_19705" data-name="Path 19705" d="M23.6,178.03a.48.48,0,0,1-.48-.48l.1-45.61a.48.48,0,0,0-.48-.48l-7.48.02a.48.48,0,0,0-.48.48V185.5a.48.48,0,0,0,.48.48l39.63.03a.48.48,0,0,0,.49-.49l-.08-7.03a.48.48,0,0,0-.48-.48l-31.22.02" fill="none"/>
      <path id="Path_19706" data-name="Path 19706" d="M55.67,132.15a.55.55,0,0,0-.52-.76l-7.89.11a.55.55,0,0,0-.5.34l-6.35,15.37a.55.55,0,0,0,.52.76l7.87-.12a.55.55,0,0,0,.5-.34l6.37-15.36" fill="none"/>
      <path id="Path_19707" data-name="Path 19707" d="M85.9,146.58a.37.37,0,0,1,.68,0l16.23,39.29a.37.37,0,0,0,.35.23l8.18-.09a.37.37,0,0,0,.34-.52L89.44,131.67a.37.37,0,0,0-.35-.23l-5.65.04a.37.37,0,0,0-.34.23L60.83,185.58a.37.37,0,0,0,.35.51l8.2-.12a.37.37,0,0,0,.33-.23L85.9,146.58" fill="none"/>
      <path id="Path_19708" data-name="Path 19708" d="M167.18,178.51a.37.37,0,0,0-.37-.37l-38.92.08a.37.37,0,0,1-.26-.64l39.28-38.8a.37.37,0,0,0,.11-.26l.12-6.65a.37.37,0,0,0-.37-.38H117.62a.37.37,0,0,0-.37.37l-.01,7.05a.37.37,0,0,0,.37.37l36.55-.02a.37.37,0,0,1,.26.63l-37.06,36.62a.37.37,0,0,0-.11.26l-.04,8.88a.37.37,0,0,0,.37.37l49.27-.02a.37.37,0,0,0,.37-.37l-.04-7.12" fill="none"/>
      <path id="Path_19709" data-name="Path 19709" d="M181.45,131.44l-7.9.04a.332.332,0,0,0-.37.38q.02,15.03.07,30.35a26.123,26.123,0,0,0,1.08,8.44c7.19,20.01,39.47,20.6,47.27.49q1.43-3.7,1.42-11.97-.02-13.68.04-27.2a.446.446,0,0,0-.5-.51l-7.78.01a.353.353,0,0,0-.4.41q.04,15.65-.01,31.36c-.04,15.02-20.63,19.72-29.23,9.13a16.036,16.036,0,0,1-3.31-10.36q-.08-14.8.02-30.17,0-.41-.4-.4" fill="none"/>
      <path id="Path_19710" data-name="Path 19710" d="M256.13,162.56c7.82-.41,13.04.73,18.67-6.01a15.137,15.137,0,0,0-5.52-23.58q-3.28-1.42-9.92-1.46-14.9-.08-29.9.01a.433.433,0,0,0-.49.49l.03,53.6a.445.445,0,0,0,.13.315.425.425,0,0,0,.31.125l7.52-.06a.354.354,0,0,0,.4-.4l.03-45.99a.35.35,0,0,1,.35-.35q11.76-.03,23.49.02c11.96.05,12.13,15.46-.48,15.45q-8.5,0-17.03.02a.451.451,0,0,0-.51.51l-.02,6.24a1.276,1.276,0,0,0,.39.91l24.03,22.97a2.34,2.34,0,0,0,1.63.66l9.5-.04q1.15,0,.32-.79l-23.13-22.11q-.51-.5.2-.53" fill="none"/>
      <path id="Path_19711" data-name="Path 19711" d="M325.41,155.75c1.66,9-4.58,18.36-12.88,21.15-6.92,2.33-19.09,1.34-27.6,1.2a.4.4,0,0,0-.47.45v6.93a.46.46,0,0,0,.52.52q8.17.01,16.63-.03,8.66-.05,13.11-1.51c25.08-8.2,25.43-42.95.5-51.37q-4.49-1.52-13.36-1.58-8.58-.06-16.95-.01a.4.4,0,0,0-.45.45v7a.318.318,0,0,0,.36.36q9.5-.06,19.41-.06c10.51,0,19.27,6.17,21.18,16.5" fill="none"/>
      <path id="Path_19712" data-name="Path 19712" d="M348.47,154.76a.47.47,0,0,1-.47-.47V139.74a.47.47,0,0,1,.47-.47l35.09-.01a.47.47,0,0,0,.47-.46l.13-6.83a.47.47,0,0,0-.47-.48H340.2a.47.47,0,0,0-.47.47v53.57a.47.47,0,0,0,.47.47l43.36-.02a.47.47,0,0,0,.47-.46l.08-6.85a.47.47,0,0,0-.47-.48l-35.18.02a.47.47,0,0,1-.47-.47l.02-14.62a.47.47,0,0,1,.47-.47l35.16.01a.47.47,0,0,0,.47-.47l.05-6.96a.47.47,0,0,0-.47-.47H348.47" fill="none"/>
    </g>
    <path id="Path_19714" data-name="Path 19714" d="M23.6,178.03l31.22-.02a.48.48,0,0,1,.48.48l.08,7.03a.48.48,0,0,1-.49.49l-39.63-.03a.48.48,0,0,1-.48-.48V131.96a.48.48,0,0,1,.48-.48l7.48-.02a.48.48,0,0,1,.48.48l-.1,45.61a.48.48,0,0,0,.48.48Z" fill="#fff"/>
    <path id="Path_19715" data-name="Path 19715" d="M55.67,132.15,49.3,147.51a.55.55,0,0,1-.5.34l-7.87.12a.55.55,0,0,1-.52-.76l6.35-15.37a.55.55,0,0,1,.5-.34l7.89-.11a.55.55,0,0,1,.52.76Z" fill="#fff"/>
    <path id="Path_19716" data-name="Path 19716" d="M85.9,146.58,69.71,185.74a.37.37,0,0,1-.33.23l-8.2.12a.37.37,0,0,1-.35-.51L83.1,131.71a.37.37,0,0,1,.34-.23l5.65-.04a.37.37,0,0,1,.35.23l22.24,53.82a.37.37,0,0,1-.34.52l-8.18.09a.37.37,0,0,1-.35-.23L86.58,146.58a.37.37,0,0,0-.68,0Z" fill="#fff"/>
    <path id="Path_19717" data-name="Path 19717" d="M167.18,178.51l.04,7.12a.37.37,0,0,1-.37.37l-49.27.02a.37.37,0,0,1-.37-.37l.04-8.88a.37.37,0,0,1,.11-.26l37.06-36.62a.37.37,0,0,0-.26-.63l-36.55.02a.37.37,0,0,1-.37-.37l.01-7.05a.37.37,0,0,1,.37-.37h49.15a.37.37,0,0,1,.37.38l-.12,6.65a.37.37,0,0,1-.11.26l-39.28,38.8a.37.37,0,0,0,.26.64l38.92-.08A.37.37,0,0,1,167.18,178.51Z" fill="#fff"/>
    <path id="Path_19718" data-name="Path 19718" d="M181.85,131.84q-.1,15.37-.02,30.17a16.036,16.036,0,0,0,3.31,10.36c8.6,10.59,29.19,5.89,29.23-9.13q.05-15.71.01-31.36a.353.353,0,0,1,.4-.41l7.78-.01a.446.446,0,0,1,.5.51q-.06,13.52-.04,27.2.01,8.27-1.42,11.97c-7.8,20.11-40.08,19.52-47.27-.49a26.123,26.123,0,0,1-1.08-8.44q-.05-15.32-.07-30.35a.332.332,0,0,1,.37-.38l7.9-.04Q181.85,131.43,181.85,131.84Z" fill="#fff"/>
    <path id="Path_19719" data-name="Path 19719" d="M256.13,162.56q-.71.03-.2.53l23.13,22.11q.83.79-.32.79l-9.5.04a2.34,2.34,0,0,1-1.63-.66L243.58,162.4a1.276,1.276,0,0,1-.39-.91l.02-6.24a.451.451,0,0,1,.51-.51q8.53-.02,17.03-.02c12.61.01,12.44-15.4.48-15.45q-11.73-.05-23.49-.02a.35.35,0,0,0-.35.35l-.03,45.99a.354.354,0,0,1-.4.4l-7.52.06a.425.425,0,0,1-.31-.125.445.445,0,0,1-.13-.315l-.03-53.6a.433.433,0,0,1,.49-.49q15-.09,29.9-.01,6.64.04,9.92,1.46a15.137,15.137,0,0,1,5.52,23.58C269.17,163.29,263.95,162.15,256.13,162.56Z" fill="#fff"/>
    <path id="Path_19720" data-name="Path 19720" d="M325.41,155.75c-1.91-10.33-10.67-16.5-21.18-16.5q-9.91,0-19.41.06a.318.318,0,0,1-.36-.36v-7a.4.4,0,0,1,.45-.45q8.37-.05,16.95.01,8.87.06,13.36,1.58c24.93,8.42,24.58,43.17-.5,51.37q-4.45,1.46-13.11,1.51-8.46.04-16.63.03a.46.46,0,0,1-.52-.52v-6.93a.4.4,0,0,1,.47-.45c8.51.14,20.68,1.13,27.6-1.2C320.83,174.11,327.07,164.75,325.41,155.75Z" fill="#fff"/>
    <path id="Path_19721" data-name="Path 19721" d="M348.47,154.76h35.22a.47.47,0,0,1,.47.47l-.05,6.96a.47.47,0,0,1-.47.47l-35.16-.01a.47.47,0,0,0-.47.47l-.02,14.62a.47.47,0,0,0,.47.47l35.18-.02a.47.47,0,0,1,.47.48l-.08,6.85a.47.47,0,0,1-.47.46L340.2,186a.47.47,0,0,1-.47-.47V131.96a.47.47,0,0,1,.47-.47h43.49a.47.47,0,0,1,.47.48l-.13,6.83a.47.47,0,0,1-.47.46l-35.09.01a.47.47,0,0,0-.47.47v14.55A.47.47,0,0,0,348.47,154.76Z" fill="#fff"/>
  </g>
</svg>
