<svg width="24" height="24" viewBox="0 0 24 24" fill="none" xmlns="http://www.w3.org/2000/svg">
<g id="certificate_2874808 1" clip-path="url(#clip0_505_9024)">
<path id="Vector" d="M17.4369 10.4996C15.1627 10.4996 13.3121 12.3502 13.3121 14.6245C13.3121 16.8987 15.1627 18.7493 17.4369 18.7493C19.7112 18.7493 21.5618 16.8987 21.5618 14.6245C21.5618 12.3502 19.7112 10.4996 17.4369 10.4996ZM19.1858 13.9626C17.9867 15.7615 18.3267 15.2515 17.6858 16.2125C17.4556 16.5578 16.9896 16.6494 16.6457 16.4202L15.5208 15.6702C15.1762 15.4405 15.0834 14.9751 15.3131 14.6301C15.5428 14.2856 16.0082 14.1928 16.3532 14.4224L16.8538 14.7562C18.05 12.9623 17.9856 13.0119 18.1869 12.8972C18.87 12.502 19.6248 13.3033 19.1858 13.9626ZM14.0621 19.1215V23.2491C14.0621 23.8238 14.6845 24.1859 15.1842 23.9002L17.4369 22.6131L19.6897 23.9002C20.1874 24.1855 20.8118 23.8253 20.8118 23.2491V19.1215C18.8137 20.6248 16.063 20.627 14.0621 19.1215ZM18.9369 9.2031V1.62885C18.9369 0.730754 18.2061 0 17.308 0H4.06635C3.16825 0 2.4375 0.730754 2.4375 1.62885V18.9954C2.4375 19.8935 3.16825 20.6242 4.06635 20.6242H12.5621C12.5621 17.3969 12.5571 17.5966 12.5738 17.4481C10.0632 13.1439 14.061 7.84902 18.9369 9.2031ZM6.93733 3.74986H13.3121C13.7265 3.74986 14.0621 4.08547 14.0621 4.49983C14.0621 4.91419 13.7265 5.2498 13.3121 5.2498H6.93733C6.52297 5.2498 6.18736 4.91419 6.18736 4.49983C6.18736 4.08547 6.52297 3.74986 6.93733 3.74986ZM10.6872 11.2496H6.93733C6.52297 11.2496 6.18736 10.914 6.18736 10.4996C6.18736 10.0853 6.52297 9.74964 6.93733 9.74964H10.6872C11.1016 9.74964 11.4372 10.0853 11.4372 10.4996C11.4372 10.914 11.1016 11.2496 10.6872 11.2496ZM6.93733 8.24969C6.52297 8.24969 6.18736 7.91408 6.18736 7.49972C6.18736 7.08536 6.52297 6.74975 6.93733 6.74975H13.3121C13.7265 6.74975 14.0621 7.08536 14.0621 7.49972C14.0621 7.91408 13.7265 8.24969 13.3121 8.24969H6.93733Z" fill="#919EAB"/>
</g>
<defs>
<clipPath id="clip0_505_9024">
<rect width="24" height="24" fill="white"/>
</clipPath>
</defs>
</svg>
