<svg width="18" height="18" viewBox="0 0 18 18" fill="none" xmlns="http://www.w3.org/2000/svg">
<g id="vuesax/bold/star">
<g id="star">
<path id="Vector" d="M11.5421 3.90746L12.5996 6.02246C12.7421 6.31496 13.1246 6.59246 13.4471 6.65246L15.3596 6.96746C16.5821 7.16996 16.8671 8.05496 15.9896 8.93996L14.4971 10.4325C14.2496 10.68 14.1071 11.1675 14.1896 11.52L14.6171 13.365C14.9546 14.82 14.1746 15.39 12.8921 14.625L11.0996 13.56C10.7771 13.365 10.2371 13.365 9.91459 13.56L8.12209 14.625C6.83959 15.3825 6.05959 14.82 6.39709 13.365L6.82459 11.52C6.89209 11.16 6.74959 10.6725 6.50209 10.425L5.00959 8.93246C4.13209 8.05496 4.41709 7.16996 5.63959 6.95996L7.55209 6.64496C7.87459 6.59246 8.25709 6.30746 8.39959 6.01496L9.45709 3.89996C10.0346 2.75996 10.9646 2.75996 11.5421 3.90746Z" fill="#919EAB"/>
<path id="Vector_2" d="M6 4.3125H1.5C1.1925 4.3125 0.9375 4.0575 0.9375 3.75C0.9375 3.4425 1.1925 3.1875 1.5 3.1875H6C6.3075 3.1875 6.5625 3.4425 6.5625 3.75C6.5625 4.0575 6.3075 4.3125 6 4.3125Z" fill="#919EAB"/>
<path id="Vector_3" d="M3.75 14.8125H1.5C1.1925 14.8125 0.9375 14.5575 0.9375 14.25C0.9375 13.9425 1.1925 13.6875 1.5 13.6875H3.75C4.0575 13.6875 4.3125 13.9425 4.3125 14.25C4.3125 14.5575 4.0575 14.8125 3.75 14.8125Z" fill="#919EAB"/>
<path id="Vector_4" d="M2.25 9.5625H1.5C1.1925 9.5625 0.9375 9.3075 0.9375 9C0.9375 8.6925 1.1925 8.4375 1.5 8.4375H2.25C2.5575 8.4375 2.8125 8.6925 2.8125 9C2.8125 9.3075 2.5575 9.5625 2.25 9.5625Z" fill="#919EAB"/>
</g>
</g>
</svg>
