<svg width="32" height="32" viewBox="0 0 32 32" fill="none" xmlns="http://www.w3.org/2000/svg">
<g id="search-zoom-in">
<path id="Vector" d="M14.6793 2.66699C8.05268 2.66699 2.66602 8.05366 2.66602 14.6803C2.66602 21.307 8.05268 26.6937 14.6793 26.6937C21.306 26.6937 26.6927 21.307 26.6927 14.6803C26.6927 8.05366 21.306 2.66699 14.6793 2.66699ZM17.9993 15.667H15.666V18.0003C15.666 18.547 15.2127 19.0003 14.666 19.0003C14.1193 19.0003 13.666 18.547 13.666 18.0003V15.667H11.3327C10.786 15.667 10.3327 15.2137 10.3327 14.667C10.3327 14.1203 10.786 13.667 11.3327 13.667H13.666V11.3337C13.666 10.787 14.1193 10.3337 14.666 10.3337C15.2127 10.3337 15.666 10.787 15.666 11.3337V13.667H17.9993C18.546 13.667 18.9993 14.1203 18.9993 14.667C18.9993 15.2137 18.546 15.667 17.9993 15.667Z" fill="#919EAB"/>
<path id="Vector_2" d="M29.3207 25.2667C28.8807 24.4533 27.9474 24 26.6941 24C25.7474 24 24.9341 24.3867 24.4541 25.0533C23.9741 25.72 23.8674 26.6133 24.1607 27.5067C24.7341 29.24 25.7341 29.6267 26.2807 29.6933C26.3607 29.7067 26.4407 29.7067 26.5341 29.7067C27.1207 29.7067 28.0274 29.4533 28.9074 28.1333C29.6141 27.1067 29.7474 26.08 29.3207 25.2667Z" fill="#919EAB"/>
</g>
</svg>
